<svg xmlns="http://www.w3.org/2000/svg" viewBox="0 0 1908 83.8"><defs><style>.cls-1{fill:none;}.cls-2{opacity:0.89;}.cls-3{fill:#121212;}.cls-4{fill:#28b897;}.cls-5,.cls-6{fill:#fff;}.cls-6{fill-rule:evenodd;}</style></defs><g id="Layer_2" data-name="Layer 2"><g id="Layer_1-2" data-name="Layer 1"><polygon class="cls-1" points="810.91 41.95 1097.09 41.95 1099.16 41.85 808.84 41.85 810.91 41.95"/><g class="cls-2"><rect class="cls-3" width="1908" height="83.8"/></g><path class="cls-4" d="M1902.21,5.79V78H5.79V5.79H1902.21M1908,0H0V83.8H1908V0Z"/><g id="surface1"><path class="cls-5" d="M877.53,30.06a.06.06,0,0,1,.05-.06s0,0,0,.06,0,.07,0,.07-.05,0-.05-.07m4.65.81s0-.05.07-.07.07,0,0,0-.09.08-.09,0m-7.21.48c-.08-.1-.08-.14,0-.14a.06.06,0,0,1,.06.06.09.09,0,0,0,.06.08s0,0,0,0a.15.15,0,0,1-.12,0m9,.3s-.05-.06,0-.07.05,0,.08,0,0,.08,0,0m-.69.43s0,0,0,0,.08,0,.08,0,0,.05-.09,0m1,.13c.05,0,.05,0,0-.06s0,0,0,0,.17.06.08.09-.18,0-.11,0m.57.07c0-.05,0-.07,0-.06s0,.05,0,.08,0,0,0,0m-.44.13c0-.07.05-.12.09-.09s0,.15,0,.15,0,0,0-.06m-.84,0a.17.17,0,0,1,.13,0,.2.2,0,0,0,.15-.07c0-.05,0-.06.07,0a.09.09,0,0,1,0,.1c-.06.06-.37.09-.34,0m-11,.11a.09.09,0,0,1,0,0s0,0,0,0a0,0,0,0,1,0,0h0m-.11.1c0-.07,0-.1.1-.06s.08,0,.07.06a.1.1,0,0,1-.17,0m13.8,0a0,0,0,0,1,0,0,0,0,0,0,1,0,0,0,0,0,0,1,0,0,0,0,0,0,1,0,0m-.21,0c0-.06.07-.1.1,0s0,0,0,.06-.06,0-.06,0m-.43,0a0,0,0,1,1,.08,0,0,0,0,1,1-.08,0m.13,0s0-.07,0,0,0,0,0,.08,0,0,0,0m-.35.11a0,0,0,0,1,0,0,0,0,0,0,1,.05,0,0,0,0,0,1-.05,0,0,0,0,0,1,0,0m-13,0s0,0-.06,0,0,0,0,0,.11-.06.17,0,0,.06,0,.06a.12.12,0,0,1-.08,0m14.84.18a.29.29,0,0,1,0-.1s0,0,0,0a.13.13,0,0,1,0,.1s0,0,0,0m.22,0a0,0,0,0,1,0,0,0,0,0,0,1,0,0s0,0,0,0a0,0,0,0,1,0,0m-15.12,0s0,0,.06,0,.07,0,.07,0,0,0-.07,0a.06.06,0,0,1-.06,0m15.11.33c-.09-.06-.1-.09,0-.12s.05,0,0,0a0,0,0,0,0,0,.06s.07,0,.07,0-.05,0-.14,0m-2.83,0s.06,0,.07,0,0,.11-.08.11,0,0,0-.07M887,34a.15.15,0,0,1,.06-.07s0,0,0,0,0,.07,0,.07-.06,0-.06,0m-.26.08c0-.11.06-.15.1,0s0,.16-.06.16,0,0,0-.11m.43.24a0,0,0,0,1,0,0s.09,0,.14-.1.14-.08.07.07-.25.17-.25.07m-.41.05a.31.31,0,0,1,.19-.06c.11,0,.13,0,.13-.11a.12.12,0,0,1,.09-.11c.1,0,.12,0,0,.08a.11.11,0,0,0-.06.09c0,.07,0,.09-.24.12s-.16,0-.13,0m1.23.43s0-.05.07-.07.06,0,0,0-.09.09-.09,0m-.26,0c0-.06.12-.06.15,0s0,0-.06,0-.09,0-.09,0m-17.21,1.42s0,0,0-.06,0,0,.05,0,0,.09,0,0m.28.23a.2.2,0,0,0-.14-.11s0,0,.11,0,.21,0,.23,0,0,0,0,0a.06.06,0,0,0,0,.06c0,.1-.07.08-.13,0m-.3.1s.08-.06.11,0,0,0,0,0-.07,0-.07,0m0,.28a0,0,0,0,1,.05,0,0,0,0,0,1,0,0,0,0,0,0,1,0,.05,0,0,0,0,1-.05-.05m.22,0s0,0,0,0,.06.11,0,.11,0,0,0-.07m-1.66.58s0,0,0,0a.08.08,0,0,0,.1,0c0-.09.2-.08.19,0s-.28.13-.32,0m0,.33c0-.13,0-.2,0-.1s.05.21,0,.21-.05-.05-.07-.11M869,38s0-.05.07-.06.14,0,.1,0a.11.11,0,0,1-.17,0m-.3.36c-.05-.13,0-.16.06-.07s.11.14,0,.14a.09.09,0,0,1-.08-.07m2.56.55c-.06,0-.06,0,0,0a.27.27,0,0,1,.13,0c.05,0,.05,0,0,0a.28.28,0,0,1-.13,0m-.43,0a.18.18,0,0,1,.16-.14s0,0,0,0-.19.14-.19.1m14.86.16c-.11-.06,0-.08.08,0s.08,0,.05,0a.28.28,0,0,1-.13,0m1.12.07s0,0,.06-.07.07,0,.07,0,0,0-.07.07h-.06m-.81-.05s0-.06,0-.06a.06.06,0,0,1,.06.06c0,.08,0,.08-.07,0m.27.26c0-.11,0-.11.08,0s.07.08,0,.08a.14.14,0,0,1-.1-.07m-1.19.28s.21-.11.25-.06-.07.11-.17.11-.08,0-.08-.05m-.42.11a.09.09,0,0,1,.09,0s0,0,0,0-.07,0-.06,0m.94,0c0-.08.09-.1.35-.11s.32,0,.14.11-.13,0-.15,0-.06,0-.14,0-.2.06-.2,0m-.52.17a.1.1,0,0,1,0-.07s0,0,0,0,0,.07,0,.07a0,0,0,0,1,0,0m-13.63.08s0,0,0,0,0,0,0,0,0,.06-.07,0m-.14,0c-.06-.06-.07-.12,0-.12s.1.13.07.16,0,0-.06,0m0,.36s0-.09,0-.09,0,0,0,.09,0,.09,0,.09,0,0,0-.09m-.5.05a.14.14,0,0,1-.06-.12c0-.06,0-.08.08-.07s.09,0,.09,0,0,0,.1,0,.09,0,0,0,0,0,0,0,.09,0,.09,0,0,.2-.11.2,0,0,0-.07,0-.06,0-.06-.06,0,0,.06,0,.09-.14,0m-.14.11s0-.08,0-.09,0,0,.07,0,0,.12-.06.05m15.16.14c0-.05,0-.05.06,0s0,0,0,0a0,0,0,0,1,0,0m-14.34,0,0,0s0,0,0,0a0,0,0,0,1,0,0s0,0,0,0m-.52,0a.08.08,0,0,1,0-.07s0,0,0,0a.06.06,0,0,1,0,.06s0,0,0,0m2.32.21a0,0,0,0,1,0,0,0,0,0,1,1,0,.08,0,0,0,0,1,0,0m9.95,0a0,0,0,0,1,.05,0s0,0,0,.06-.05,0-.05,0m2.58,0c0-.06,0-.11,0-.11s0,.05,0,.11,0,.11-.05.11,0,0,0-.11M873.27,41c0-.05,0-.07,0-.06s0,0,0,.09,0,0,0,0m.69.1.1,0s0,0,0,0a.19.19,0,0,1-.1,0s0,0,0,0m-1.73.07s0,0,0-.06,0-.05,0-.08,0-.06,0-.06.22.14.19.18-.14,0-.15,0m11.55.11a0,0,0,1,1,.08,0,0,0,0,0,1-.08,0m-8.92.08a0,0,0,0,1,0,0,0,0,0,0,1,.05,0,0,0,0,0,1-.05,0,0,0,0,0,1,0,0m-.3.07s0,0,0,0,0,0,0,0a0,0,0,0,1,0,0l0,0m-2.76.12s.16-.14.25-.14.1,0,.1-.06,0-.07.08-.08.07,0,0,.1-.07.13-.19.11-.14,0-.14,0a.06.06,0,0,1-.06.06s-.07,0-.07,0m12.46.09a.09.09,0,0,1,.09,0s0,0,0,0-.07,0-.06,0m-.35,0s0,0-.11,0-.11,0-.11,0,.08,0,.17,0,.16,0,.14.07-.09.11-.09,0m-11.51,0a.28.28,0,0,1,0-.14s0,0,0,0a.64.64,0,0,0,.11.13l.11.12h-.1a.16.16,0,0,1-.14-.11m10.09.11s0,0,.06,0,.06,0,.06,0,0,0-.06,0-.06,0-.06,0m1.33,0a.06.06,0,0,0-.06,0s-.07,0-.07,0,0-.05.17,0,.1.09,0,.09-.08,0-.08,0m-2.16.4h.1s0,0,0,0-.08,0-.05,0m-4.6-11.76s0,0,0,0,0,.06,0,.06a0,0,0,0,0,0,0m3.94.13s-.07,0-.07,0a0,0,0,0,0,.05,0s0,0,0,0m.71,0s0,0,0,0-.06.07,0,.07a0,0,0,0,0,0,0m-5,0c0-.07,0-.1,0-.09s0,0,0,0,0,0-.1,0-.14.05,0,.14.12.11.08,0m.56.09c-.1-.08-.15-.08-.12,0a.14.14,0,0,0,.12.06c.09,0,.09,0,0-.06m-.4-.05a.14.14,0,0,1,.09,0s0,0,0,0-.07,0-.06,0m.16,0c0-.1,0-.11-.1-.13s-.14,0-.09.15.19.05.19,0m-.68.22c-.05,0-.05,0,0,0s0,0,0-.09-.1-.09-.13-.05.06.23.17.23.06,0,0-.05m2.11,0c0-.07,0-.07-.05,0s.05.14.08.11,0-.06,0-.1m-1.73.14s-.06-.06-.08-.05,0,.05,0,.07.11.05,0,0m1.17.1a0,0,0,0,0,0,0,0,0,0,0,0,0,0,0,0,0,0,0,0,.05,0,0,0,0,0,0-.05m-.4-.11a.24.24,0,0,1,0-.15s0-.1,0-.11,0,0,0,0,0,.07,0,.1-.08.19,0,.19,0,0,0,.06,0,.06.06,0,0-.07,0-.1m-2.1.18s0,0-.07,0,0,0,0,0,.11.06.11,0m1.73,0c0-.12-.05-.11-.05,0s0,.1,0,.09,0-.06,0-.11m-.23.12a.55.55,0,0,0-.1-.08c-.08-.06-.08-.06,0,0a.19.19,0,0,0,.11.08s0,0,0,0m-.64,0c0-.05,0-.06.1,0s.18,0,0-.15-.13-.09-.11,0,0,.1,0,.14-.12.14,0,.14a.07.07,0,0,0,.06-.07m6,.05s0,0-.05,0a0,0,0,0,0,0,0s0,0,0,0,.05,0,.05,0m-6.48,0s0-.06-.07-.05,0,.05,0,.09.11.05.07,0m-.2,0a.08.08,0,0,0-.09-.07c-.08,0-.11.05-.05.11s.14,0,.14,0m.13.11a0,0,0,0,0,0-.05,0,0,0,0,0,0,.05,0,0,0,0,0,0,0,0,0,0,0,0,0,0m.43,0s0,0,0,0-.06.06,0,.06a0,0,0,0,0,0,0m-.59,0s-.07,0-.09,0,0,0,.06,0,.06,0,0,0m.68.06s-.05,0-.05,0,.05.11.08.08,0,0,0-.07m-.38,0c0-.08-.05-.08-.05,0s0,.06,0,.06,0,0,0-.06m3.89.16s0,0,0,.06,0,.06,0,0,0-.07,0-.09m-2.33.29c0-.05-.06-.05-.06,0a0,0,0,0,0,0,0s0,0,0,0m-4.46.57a0,0,0,0,0,0-.05s0,0,0,.05.06,0,.06,0m7.18,0s0,0,0,.06,0,.06,0,0a.07.07,0,0,0,0-.08m-1.25.12c0-.06-.07-.06-.07,0a0,0,0,0,0,.05,0s0,0,0,0m-4.63,0s0,0-.05,0,0,.06,0,.06a0,0,0,0,0,.05,0m-1.27.05s-.08-.05-.1,0,0,0,0,.08.15,0,.07,0m10.18,0s0,0,0,0a.1.1,0,0,0-.05.07s0,0,.05,0a.13.13,0,0,0,0-.07m-4.76,0s0,0,0,0,0,0,0,.07.06,0,0,0m8,.08s0,0,0,.06,0,.06,0,0,0-.07,0-.09m-2.93,0s-.15.08-.15.13,0,0,.09,0,.07-.08.06-.1M873.7,33s0,0-.06,0-.06,0,0,0,.1,0,.1,0m.24,0c0-.05-.08,0,0,.08s0,0,.05,0a.1.1,0,0,0,0-.08m4.88.07c0-.05-.06-.09-.08-.09s0,0,0,.11.12.09.06,0m1.17.09s0,0,0,0-.05.06,0,.06a0,0,0,0,0,0,0m3.38,0s0,0,0,0,.05,0,.11,0,.14,0,.15,0-.26,0-.38.06-.09.08,0,.06l.13-.05m-8.85.05a0,0,0,0,0,0-.05,0,0,0,0,0,0,.05,0,0,0,0,0,0,0,0,0,0,0,0,0,0m2.39,0a.26.26,0,0,0-.12-.09c-.06,0,.1.17.16.17s0,0,0-.08m9.14.09s.06,0,.05,0a.14.14,0,0,1,0-.13c0-.07,0-.13-.06-.22l-.1-.13,0,.13,0,.2a.17.17,0,0,0,0,.15c.05.07.05.07.07,0s0-.07.08,0m-6.56,0c0-.06-.06-.06-.06,0a0,0,0,0,0,0,0s0,0,0,0m-1.5,0a.06.06,0,0,1,0-.08s0,0,0,0-.06,0-.11,0-.08.07,0,.11.1,0,.07,0m-5.2,0h-.06s-.06,0,0,0,.1,0,.1,0m14.33.07s0,0,0,0-.07,0-.07,0,.07.06.11,0m-.67-.12c0-.1-.06-.2-.11-.21a.24.24,0,0,0-.12.1c-.05.07-.06.1,0,.09s.06,0,.07.09,0,.09.1.05a.16.16,0,0,0,.08-.12m.16.12c.09-.05.13-.1.11-.15s-.14-.08-.14,0a.27.27,0,0,1-.09.15c-.11.11-.06.11.12,0m-3,0a.25.25,0,0,1,.15-.06c.06,0,.1,0,.1-.07s-.06-.08-.11,0-.06,0-.11,0-.08,0-.08,0,0,.06,0,.06a0,0,0,0,0,0,0c0,.06.06.05.13,0m-1.07,0c0-.07,0-.08,0,0s0,.07,0,.09,0,.05.07,0m-1.65,0c0-.1-.07-.12-.1,0s0,.09,0,.09a.06.06,0,0,0,.06-.06m5.86.06c0-.06-.07-.06-.11,0s0,0,0,0,.07,0,.07,0m-14.68,0s-.07,0-.08,0,0,0,0,0,.07,0,0,0m6.71,0s0,0-.07,0-.07,0,0,0,.08.05.08,0m-1.21,0c0-.08-.07-.19-.1-.15s0,.06,0,.11.09.12.08,0m5.93.05a0,0,0,0,0-.07,0c-.06,0,0,.06,0,.06s0,0,0,0m-5.14-.06c0-.14-.05-.14-.05,0s0,.11,0,.11,0,0,0-.11m8.19.08s0,0,0,0a.13.13,0,0,0,0,.07c0,.06,0,0,.06,0m-.49,0c0-.05,0-.07,0-.06s-.06.15,0,.15,0,0,0-.09m-6.44,0s0,0,0,0-.07,0-.07,0,.08,0,.11,0m-1,0c0-.07-.1-.09-.1,0a.11.11,0,0,0,.1.09s0,0,0-.06m-1.54,0c0-.06-.06-.06-.06,0a0,0,0,0,0,0,0s0,0,0,0m-.45,0a.21.21,0,0,0-.11,0s0,0,0,0l.11,0s0,0,0,0m9-.16s0-.08,0-.18l.07-.12-.12.13c-.08.08-.11.14-.07.15s.07.14,0,.14,0,0,0,.06.06.06.09,0a.18.18,0,0,0,0-.16m.2.22a.58.58,0,0,1,0-.18c0-.05,0-.1,0-.1s-.16.13-.13.17a0,0,0,0,1,0,.06s0,.05,0,.09.13.07.14,0m-3.56.09a.27.27,0,0,1,0-.08,0,0,0,0,0-.05-.06s-.06,0-.06.08,0,.08,0,.08,0,0,0,0m-.51-.07a0,0,0,0,0,0,0s0,0,0,.07,0,0,0,0a.09.09,0,0,0,0-.07m-2.42.05a0,0,0,0,0,0,0s0,0,0,0,.06,0,.06,0m7,0c.12-.07.1-.13,0-.08s-.11.07-.11.09,0,0,.14,0m-8.56,0c0-.07-.1-.05-.08,0s0,.05.07,0,0,0,0-.06m4.33,0c0-.1,0-.13,0-.13s0,0,0,.09,0,.09-.06.05-.1,0-.14,0-.06.12.07.12.14,0,.18-.13m-6.35.09c0-.06-.07-.06-.07,0a0,0,0,0,0,0,0s0,0,0,0m5.94.08c0-.07,0-.08-.05,0s0,.07,0,.07a.09.09,0,0,0,.07-.05m-3.74,0s0-.08,0-.09h0c-.07.05,0,.16,0,.16s.06,0,0-.07m-.64,0s-.06-.08-.07-.07.08.16.11.16,0,0,0-.09m7.81,0s0,0,0,0,0,.07.05.06,0,0,0-.08m-6.73.1c.09-.05,0-.19-.07-.21s-.1,0-.08.06a.35.35,0,0,1,0,.13c0,.07,0,.08.12,0m8,0a.14.14,0,0,0,0-.11s0,0,0,0,0,.07,0,.07a0,0,0,0,0,0,0,.06.06,0,0,0,.06,0,.08.08,0,0,0,.07-.09m-9.48,0a.14.14,0,0,0-.1-.06s0,0,0,.06.13.08.06,0m-.6,0s0,0-.07,0,0,0,0,0,.11.06.11,0m-.6,0a0,0,0,0,0,0,0,0,0,0,0,0,0,0,0,0,0,0,0,0,0,0,0,0,0,0,0,0m10-.09s0,0,0,0a.18.18,0,0,0-.11,0,.07.07,0,0,1-.07-.07.63.63,0,0,0-.08-.17c0-.09-.08-.1-.12,0s0,.07,0,.14,0,.08,0,.07,0,0,0,.06,0,.07.09.05,0,0,0,0a.15.15,0,0,0,0,.13c0,.06,0,.06.12,0s.11-.1.13-.09m-9.75.14a0,0,0,1,0-.08,0,0,0,0,0,0,.08,0m6.73,0s0-.07,0-.1.09-.14-.06-.14-.12,0-.12,0,0,.06-.05.07,0,0,0,0,0-.05,0-.06-.07,0-.1,0a.17.17,0,0,1-.11.07s-.06,0-.06.09,0,.08.23.07.22,0,.21,0m3.22-.1s0,0-.06,0a.19.19,0,0,1-.11.08s0,0,0,0,.19-.07.19-.15m-.56.06a.11.11,0,0,0-.12,0s0,0,0,.07.17,0,.08-.09m-6.14,0c0-.09-.06-.08-.06,0s0,.08,0,.06a.07.07,0,0,0,0-.08m-.53,0c0-.09,0-.09,0,0a.18.18,0,0,0-.07.1c0,.06,0,0,.09-.06m-1.2,0s0,0,0,0,0,.11.08.08,0,0,0-.07m-.94.05c0-.05-.06-.05-.06,0a0,0,0,0,0,0,0s0,0,0,0m9.57,0c.06-.07.1-.13.08-.14s-.08,0-.15.11-.11.14-.08.14a.31.31,0,0,0,.15-.11m-.44,0c0-.08,0-.08-.08,0s0,.07,0,.07.05,0,0-.07m-3.85,0s0,0,0,0,.07-.08.14-.11.12-.06,0,0l-.18,0a.23.23,0,0,0-.14.07c-.08.09-.09.18,0,.11a.12.12,0,0,1,.11,0m-2.07,0s0,0-.06,0-.05,0,0-.07,0-.07-.09,0-.09.11,0,.11a.1.1,0,0,1,.09.06c0,.07.1.05.1,0m-2,0,0,0a0,0,0,0,0,0,0s0,0,0,0l0-.05m-1.12.11s0,0,0,0-.06.07,0,.07,0,0,0-.05m9.78,0c.08-.15,0-.18-.08,0s-.08.13,0,.13a.18.18,0,0,0,.11-.09m-.26.05a0,0,0,0,0-.05-.05s0,0,0,.05.07,0,.07,0m-8,0a0,0,0,0,0,0-.05s0,0,0,.05.06,0,.06,0m-2,0a.12.12,0,0,0-.06-.13c-.09-.05-.14,0-.1.14s.13.11.16,0m6.23.1s0-.06,0-.08-.05,0-.09,0,0,.1.05,0m-2.69,0s-.11,0-.11.08,0,0,.07,0,.06-.06,0-.07m-4.22,0s-.08,0-.1,0,.09.11.14.08,0-.05,0-.07m10.57,0c0-.06-.09-.05-.18,0s-.09.11.05.06.13-.06.13-.08m-9.05,0s-.06-.08-.07-.07,0,.15.08.15,0,0,0-.08m9.05.1s0,0,0,0a0,0,0,0,0,0,0s0,0,0,0l0,0m-3.2,0s0,0,0,0a.08.08,0,0,0-.07,0s0,0,0,0a.12.12,0,0,0,.08,0M878,34.56c0-.06-.06-.09-.08-.06a.1.1,0,0,0,.07.16s0,0,0-.1m-2.26,0s-.05,0-.05.05,0,.09.05,0,0-.06,0-.1m6.71.1c.08,0,.18-.07.18-.12a.07.07,0,0,1,.07-.06c.06,0,.06,0,0,0a.11.11,0,0,0-.11,0,.47.47,0,0,1-.15.12.14.14,0,0,0-.09.1s0,0,0,0,0,0,.05,0M879,34.58s0,0,0,.06,0,.08,0,0a.21.21,0,0,0,0-.11m-.71.07c.06-.07.05-.07,0,0l-.1.08s0,0,0,0a.18.18,0,0,0,.1-.07m-7.4,0s0-.06,0,0-.05,0,0,.06.05,0,.08,0m16.7,0s0,0-.07,0,0,0,0,0,.11,0,.11,0m-1.31,0a.09.09,0,0,1,.09-.06s0,0,0,0,0,0,0,0a0,0,0,0,0,.05,0c0-.07-.17,0-.22.09s0,.08,0,.08,0,0,0,0-.05,0,0,0a.08.08,0,0,0,.08-.06m-2.14,0s0,0,0,0-.06.07,0,.07,0,0,0-.05m-.26,0s0,0-.06,0-.07,0-.07,0,0,.05.07.05a.06.06,0,0,0,.06-.05m-12.88,0a0,0,0,0,0,0,0,0,0,0,0,0,0,0,0,0,0,0,0,0,.05s0,0,0-.05m5.87,0c-.05-.09-.06-.06,0,.05s0,.06,0,0,0,0,0-.1m-4.87.07s0,0-.05,0,0,.07,0,.07a0,0,0,0,0,.05-.05m15,0c0-.06.1,0,.12,0s0,.07,0,0,0-.08,0-.08a0,0,0,0,0,0,0s-.2,0-.31,0-.14.15,0,.12a.19.19,0,0,0,.1-.06m-3.4,0c0-.11,0-.12-.06,0s0,.08,0,.08a.09.09,0,0,0,.07-.06m-1.36,0s0,0-.06,0-.09.06,0,.06.06,0,.06,0m-3.77,0c0-.08-.09-.09-.12,0s0,.09.08.09,0,0,0-.06m-6.43,0s-.05,0-.05,0,.05.11.08.08,0,0,0-.07m10.87.07s0-.06,0-.06a.14.14,0,0,0-.1.06c-.07.08,0,.08.07,0m-6.8-.23c-.12-.11-.19-.11-.14,0s0,.06.07,0,0,0,0,0,0,0,0,0,0,0,0,0,0,.19,0,.09a.28.28,0,0,0-.09-.22m-5.16.26s0,0-.06,0,0,0,0,0,.1,0,.1,0m6.47,0s0,0-.05,0a.1.1,0,0,0,0,.07s0,0,0,0a.1.1,0,0,0,.05-.07m-.87-.16c.06-.14.06-.18,0-.18s0,0,0,.07,0,.06,0,0a.2.2,0,0,1-.06-.12s0,0-.07,0a.06.06,0,0,1-.08,0s0,0,0,.07a.2.2,0,0,0,.08.2c.09.06.12.16,0,.1s-.12,0-.13.12.25-.11.3-.21m-2.15.16c-.1-.06-.16,0-.07,0s.1.06.11,0,0,0,0-.06m12,.13s0,0,0,0a.15.15,0,0,0-.1,0c0,.06,0,.06.11,0m-10.37,0s0-.09-.06-.09,0,0,0,.11.1.08.07,0m-4.73,0c0-.09-.15-.12-.15,0a.09.09,0,0,0,.08.08c.06,0,.08,0,.07,0m13.42.07c0-.06-.08-.06-.11,0s0,0,0,0,.07,0,.07,0m-7.84,0s0-.05,0-.07,0,0,0,0-.14.1,0,.13.14,0,.06,0m1.93,0a.68.68,0,0,0-.13-.18s0-.05,0-.09-.11-.2-.15-.13,0,.22.1.22a0,0,0,0,1,.05,0c0,.07.16.3.21.3s0-.07,0-.16m-.6.09h0a0,0,0,0,0,0,0s0,0,0,0a.06.06,0,0,0,0-.05m-.21-.12c0-.07-.18-.17-.22-.13a.44.44,0,0,0,0,.18c0,.13,0,.14.13.07s.1-.09.1-.12m-6.23.12s0-.06,0,0l-.09,0s0,0,0,0,.09,0,.12,0m12,.06c0-.07.05-.25,0-.25s0,0,0,.09a.11.11,0,0,1-.07.11s-.05.05,0,.07.1.05.14,0M882.53,35s0,0,0,0,.07,0,.11-.13.05-.15,0-.15-.18.1-.16.13,0,.09-.08.15-.15.18,0,.1.09-.07.09-.09m-4.77.06c0-.11-.06-.11-.06,0s0,.09,0,.09,0,0,0-.09m-3.63,0c-.06-.07-.17-.09-.17,0s0,.08.13.08.08,0,0,0m7.63.08a.11.11,0,0,0-.08,0s0,0,.06,0,.06,0,0,0m-4.5-.41c0-.18,0-.23-.1-.08s0,.08-.06,0,0,0,0,0,.07.17.1.09,0,0,0,0,0,.1,0,.1-.09.16,0,.2.13-.22.16-.42m-5.65.4c0-.06-.11-.06-.11,0s0,0,.07,0,0,0,0,0m15.17,0c0-.09.1-.14.1,0a0,0,0,0,0,0,0s0,0,0-.09,0-.08-.09-.06l-.39.09a1.82,1.82,0,0,0-.34.08s.39.07.44,0a.12.12,0,0,1,.13,0c.06,0,.07,0,0,.07s0,0,0,0a.13.13,0,0,0,.07-.11m-5.54.05c.06-.07,0-.07,0,0l-.11.08s0,0,0,0a.18.18,0,0,0,.1-.07m-7.48,0a.07.07,0,0,0-.07,0s0,0,0,0a.08.08,0,0,0,.07,0s0,0,0,0m-.15,0s0,0,0,0a0,0,0,0,0,0,0s0,0,0,0a.09.09,0,0,0,0,0m-2.45,0s0,0,0,0a0,0,0,0,0,0,0,0,0,0,0,0,0,0,0,0,0,0,0,0,0m15.32.06a.19.19,0,0,0-.13,0s0,0,.08,0,.09,0,.05,0m-.33,0a.25.25,0,0,0-.22,0s-.08,0-.08.06h.44Zm-7.24,0,0,0a0,0,0,0,0,0,0s0,0,0,0,0,0,0,0m-2.54-.15a0,0,0,0,1,0,0c.06,0,.06,0,0,.06s0,0,0,0m.17.16a.11.11,0,0,1,.1-.09l.1,0-.1-.09c-.12-.12-.31-.08-.31.06a.18.18,0,0,0,.16.2,0,0,0,0,0,0-.05m2,0c0-.07.05-.09.06-.07s.14.08.14,0-.31-.27-.44-.27,0,0,0,.09,0,.11,0,.17-.08.14,0,.1.06,0,.06-.08,0-.07.09-.08.12,0,0,.08-.06.15,0,.15.06,0,.07-.12m-.94.07c0-.05-.11-.05-.11,0s0,0,.07,0,.05,0,0,0m6.57,0c.06-.09,0-.08-.11,0s-.07.06,0,.06a.22.22,0,0,0,.13-.06m-3.24,0s0,0,0,0,0,.06,0,.06a0,0,0,0,0,0,0m-9.64,0c0-.06-.13-.06-.13,0h0a0,0,0,0,1,.06,0s0,0,.06,0,0,0,0-.06m-.22,0s0,0-.07,0-.07,0,0,0,.09.05.09,0m12.71,0c.06,0,.08-.09.05-.09s-.27.09-.27.13.11.05.22,0m-.33-.08s-.15,0-.15.1,0,0,.09,0,.08-.08.06-.09m-11.9.1s0,0,0,0a.08.08,0,0,0-.08-.07c-.06,0-.08,0-.07.08s0,.12,0,.06a0,0,0,0,1,.06,0m11.67,0s0-.06,0-.06,0,0,0,.06.06.09.06,0m-1.62,0s0-.05,0-.05-.07,0-.07.05.08,0,.11,0m-1.56,0H880s0,0,0,0,.06,0,0,0m-.29-.09s-.08,0,0,.08,0,0,0,0,0-.07,0-.08m-6.24,0c-.08-.08-.14-.08-.07,0a.17.17,0,0,0,.09.07s0,0,0-.07m.3.07a.09.09,0,0,0-.08,0s0,0,0,0,.1,0,.07,0m13.21-.1c.1-.1.05-.18-.06-.1a.27.27,0,0,1-.17,0c-.09,0-.16.07-.08.12a.05.05,0,0,1,0,.08c0,.07.2,0,.29-.14m-1.82.14s0,0,0,0-.06.07,0,.07,0,0,0,0m-.6,0s0,0-.09,0-.09,0-.09,0,0,0,.09,0,.09,0,.09,0m-.71,0c.07,0,.07-.06,0-.06a.16.16,0,0,0-.12.06c-.07.08,0,.08.11,0m-.85,0s0,0-.06,0-.08.11,0,.11.06,0,.06-.07m-4.86,0s0-.06,0,0,0,.11,0,.11,0,0,0-.07m-1.77.05s0,0-.07,0-.05,0,0,0,.11.06.11,0m7.93,0c0-.07-.09-.08-.26,0l-.11,0,.13,0c.21.05.24,0,.24,0m-5.13,0s0,0,0,0,0,0,0,0,0,0,0,0l0,0m-.41,0a.08.08,0,0,0-.07,0s0,0,0,0a.08.08,0,0,0,.07,0s0,0,0,0m-.93-.09c0-.06,0-.06,0,0a.28.28,0,0,0,0,.13c0,.06,0,.06,0,0a.24.24,0,0,0,0-.13m5.45.17s0,0,0,0-.06,0-.06,0,.07.06.1,0m-5-.13a0,0,0,0,1,.08,0,0,0,0,1,1-.08,0m.1.1a.11.11,0,0,1,0-.07s-.05-.24-.1-.24,0,0,0,.07a.25.25,0,0,1,0,.13s0,.07,0,.12.15.07.15,0m-.79-.05c0-.14-.07-.18-.1-.06s0,.18.09.18a.68.68,0,0,0,0-.12m-1.08.08a0,0,0,0,0,0,0s0,0,0,0,.06.06.06,0m-1.81,0a0,0,0,0,0,0,0s0,0,0,0,.06.06.06,0M872,35.56c0-.06,0-.1-.06-.1a.17.17,0,0,1-.12-.07.2.2,0,0,0-.12-.06s0,0,0,.06a.17.17,0,0,0,.11.07.17.17,0,0,1,.11.07s.05.06,0,0,0,0,0,0a.06.06,0,0,0,.06.06s.07,0,.07-.1m8.52.12a0,0,0,1,0-.08,0,0,0,0,1,0,.08,0m-.43,0s0,0,0,0-.06.11,0,.11,0,0,0-.07m-1.42,0c0-.06,0-.09-.11-.06s0,0,0,.06.15,0,.15,0m-1.33-.09c-.11-.15-.11-.15-.2-.06s-.06.08,0,.13a.54.54,0,0,0,.18.06c.07,0,.07,0,0-.13m-.65-.11,0,0s0,0,0,0a0,0,0,0,1,0,0s0,0,0,0m.13.2c-.1,0-.09,0,.06,0s.18,0,.19-.15-.12-.37-.21-.37-.35.31-.32.34.05,0,.09-.06.07-.08,0,0,0,.29.16.28.09,0,0,0m4,0a.06.06,0,0,1,0-.06,0,0,0,0,1,0,0s0,0,.08,0,.1-.12-.07-.08-.14,0-.15.13,0,.09,0,.08a.1.1,0,0,0,0-.09m-6.23.08h-.11s0,0,.05,0,.09,0,.06,0m-1.71,0a.09.09,0,0,0-.07,0s0,0,0,0a.1.1,0,0,0,.07,0s0,0,0,0m5.29,0c0-.08-.15-.08-.15,0a.08.08,0,0,0,.09.07c.05,0,.07,0,.06-.07m-4.46,0c.07-.09,0-.18-.19-.15s-.11,0-.11-.05,0,0,0,0,0,.19.12.24.15.06.2,0m-2.11,0s0-.07-.09-.09-.34-.06-.31,0,0,0,0,0,0,0,0,0,.08,0,.1,0,.06,0,.15,0,.18.09.18,0m7.63,0c0-.05,0-.07-.1-.07s-.09,0-.06.1.16.09.16,0m-.67.14c0-.06-.06-.06-.06,0a0,0,0,0,0,0,0s0,0,0,0m-4.16-.09c-.06-.06-.11-.08-.16-.06s-.06,0,0,0a.44.44,0,0,1,.15.08s.07.06.08.05,0-.07-.08-.12m-3.2.09c0-.06-.11-.06-.11,0s0,0,.06,0,.06,0,0,0m14.08,0s0-.06,0-.07-.05,0-.06,0,0,.09.08,0Zm-8.72,0a0,0,0,0,0,0,0s0,0,0,0,.07.06.07,0m-1.85,0s0,0-.09,0-.08,0-.06,0,.15.06.15,0m-1.93,0s-.07,0-.09,0,0,0,.06,0,.06,0,0,0m-.42,0s0,0-.08,0-.08,0,0,0S872.27,35.94,872.3,35.89Zm-1.44-.09s0-.08,0-.08,0,.05,0,.11,0,.09,0,.08a.14.14,0,0,0,0-.11m16.45.14a0,0,0,0,0,0,0,0,0,0,0,0,0,0,0,0,0,0,0,0,0,0,0,0,0,0,0,0m-8,0s0-.06-.06,0-.11.09,0,.09a.09.09,0,0,0,.08-.07m5.41-.08s0,0-.06,0a.24.24,0,0,0-.07.13s0,0,.07,0a.33.33,0,0,0,.06-.12M883,36c.08-.07.06-.11,0-.08a.11.11,0,0,0-.06.09c0,.08,0,.08.1,0m-6.87,0s0,0,0,0,0,.07.06,0,0,0,0-.08m-.12,0a.22.22,0,0,0-.13-.14s-.1-.08-.1-.11,0-.07,0-.07-.06,0,.05.22A.41.41,0,0,0,876,36c.09,0,.09,0,.06-.08m-.64.07a.05.05,0,0,0-.07,0q-.09.06,0,.06s0,0,0,0m-3.3,0c0-.06-.25-.18-.35-.16s-.07,0,.07.1.28.13.28.06m12.95,0c0-.1,0-.11-.09,0s-.07.09,0,.09a.1.1,0,0,0,.09-.07m-1.36,0c0-.06,0-.06.07,0s0,0,0,0a0,0,0,0,1,0,0m.17,0a.38.38,0,0,0,0-.19c0-.08,0-.11.09-.13s.08,0,0,0-.12,0-.12,0,0,0-.1,0a.25.25,0,0,0-.2.07c-.09.07-.09.09,0,.09s.09,0,.08.16.2.06.25,0m-1.81,0s0,0,0,0,0,.07,0,.07,0,0,0,0m-3.16,0c0-.05-.07-.05-.07,0a0,0,0,0,0,0,0s0,0,0,0m5.28,0a.4.4,0,0,0,.09-.15.09.09,0,0,1,.1-.05s.06,0,.06-.06,0-.09,0-.09,0,0,0,0-.18.1-.22,0-.09,0-.12,0a.09.09,0,0,0,0,.11s0,.05,0,.07-.07.14,0,.14a.21.21,0,0,0,.12-.08m-1.33,0c0-.06,0-.08,0-.06a.1.1,0,0,0-.06.08c0,.09.08.07.1,0m-11.3,0s-.21-.1-.28-.09a.27.27,0,0,1-.14,0,.18.18,0,0,0-.15,0s-.07,0-.09,0,0,0,0,0a0,0,0,0,0,.06,0,.84.84,0,0,1,.25,0c.28,0,.38,0,.38,0m10.88,0s-.06,0-.1,0-.07.08,0,0,.09-.06.07-.08m-1.53,0h-.09s-.08,0-.08,0,0,0,.08,0,.09,0,.09,0m-4.82,0H876a0,0,0,0,0,0,0s0,0,0,0,.05,0,.05-.05m-.91,0s0-.06-.09-.09-.1-.05,0,0,.11.11.11,0m-1.25,0a.08.08,0,0,0-.08-.07c-.1,0-.12.07,0,.1s.12,0,.12,0m13.14.06a0,0,0,0,0,0,0,0,0,0,0,0,0,0,0,0,0,0,0,0,.05,0,0,0,0,0,0-.05m-8.36,0c0-.11-.05-.16-.17-.17s-.09,0,0,0,.06,0,0,0,0,0,0,.08.17.11.17,0m7,.06c.08-.06.07-.06-.09,0a.32.32,0,0,0-.18.06c0,.07.17.06.27,0m-1,0h0a0,0,0,0,0,0,0s0,0,0,0,0,0,0,0m-8,0c0-.06-.07-.06-.07,0a0,0,0,0,0,0,0s0,0,0,0m-1.75,0a.51.51,0,0,0-.42-.15c-.1,0-.08,0,.14.12s.35.12.28,0m-2.11,0a0,0,0,1,0-.08,0,0,0,0,1,0,.08,0m1,0s0,0-.09-.06-.12,0,0,.07.12,0,.12,0m8.5,0c0-.05,0-.06,0,0a.07.07,0,0,0-.06.06c0,.06.07.05.1,0m-3.94-.05c-.06-.08-.11,0-.07,0s0,.06.07.05,0-.05,0-.09m-4.86,0c-.09-.08-.22-.11-.22-.06a.93.93,0,0,0,.3.14s0,0-.08-.08m-.46,0s0-.06-.1-.06-.09,0,0,0,.07,0,.05.06,0,0,0,0,0,0,.07-.07m12.82,0c.06,0,.08-.09.05-.09a.24.24,0,0,0-.11.06l-.09.07s0-.08,0-.15.06-.07,0-.07-.13.16-.09.23.08,0,.19-.05m-.81.05s-.07,0-.09,0,0,0,.06,0,.06,0,0,0m-1.05,0c.06-.06.07-.21,0-.21s-.11.08-.15.19.06.1.14,0m-.28,0c.07-.07.09-.14,0-.14s-.19.13-.19.18.08,0,.15,0m-3.24,0s-.07,0-.08,0,0,0,.05,0,.06,0,0,0m-1.1-.12c0-.16-.1-.19-.19-.1s-.06.2,0,.22.22,0,.17-.12m-.54,0c-.08-.05-.11,0-.07.07s0,.07.08,0,0-.06,0-.09m-4,.09s0,0-.15-.07a.61.61,0,0,1-.24-.08.31.31,0,0,0-.16-.07s-.1,0-.14-.11a.46.46,0,0,0-.49-.19c-.14,0-.2,0-.21.09s0,.07.15,0,.2,0,.21.1a1.23,1.23,0,0,0,0,.13.22.22,0,0,0,.14,0,2,2,0,0,1,.4.08c.29.09.43.11.47,0m-2.52,0s-.06-.06-.13-.08-.13-.07-.13-.09a.06.06,0,0,0-.06-.05s-.07,0-.07,0,0,0-.09-.06l-.35-.11a1,1,0,0,0-.36-.08c-.11,0-.1,0,.08.07s.21.08.21.14a.11.11,0,0,0,.07.1l.4.1a1.13,1.13,0,0,1,.34.11,0,0,0,0,0,.09,0m-.47,0-.07,0s-.05,0,0,0,.11.06.11,0m13.69,0s0,0-.06,0l-.11,0s0,0,0,0,.19,0,.19,0m.56,0c0-.09.09-.13.16-.13s.14-.07.05-.1-.25.07-.25.13a.12.12,0,0,1-.07.09.39.39,0,0,0-.14.08c0,.05,0,.06.07.06s.14,0,.18-.13m-2,0s0,0-.06,0-.08.09,0,.06a.09.09,0,0,0,.06-.07m-.87,0s0-.07,0-.08,0,0,0-.08,0-.05-.13,0-.08.1,0,.08.08,0,.09,0,0,.06,0,.06,0,0,0-.06m-11.23,0a0,0,0,0,0,0-.05,0,0,0,0,0,0,.05,0,0,0,0,0,0,0,0,0,0,0,0,0,0m13.27,0s0,0-.09,0-.07.06,0,.09.12,0,.12-.08m-2.37,0s0,0,0,0-.12-.08-.18,0,0,.09,0,0a.1.1,0,0,1,.12,0m-.27,0c.09-.09.06-.12-.07-.07s-.21.12-.09.12a.25.25,0,0,0,.16,0m-8.05,0s0,0,0,0a0,0,0,0,1-.06,0,.1.1,0,0,0-.08-.05s0,0,0,.07.15.08.15,0m-1.85,0c0-.07-.18-.2-.27-.2s0,0,0,.12,0,.12.16.13.15,0,.15-.05m12.93.12h-.08s0,0,.06,0,.06,0,0,0m-6.34-.07c0-.05-.1,0-.12,0s0,0,.05,0a.08.08,0,0,0,.07-.07m-.21,0c.11-.12.05-.15-.06,0s-.1.15-.06.15l.12-.11m3.2.12h-.11s0,0,.05,0,.08,0,.06,0m-3.7,0a.28.28,0,0,0,0-.17c-.06-.09-.08-.1-.16-.06s-.08.05,0,.17.14.16.18.06m-1.64,0c0-.05-.28-.3-.38-.3s0,.11.05.14.06,0,0,0,0,0,0,0a.18.18,0,0,1,0,.11s0,.08,0,.06,0,0,0,0a.08.08,0,0,0,.15,0m10.16,0s.07,0,0,0-.32,0-.32,0,0,0,.1,0h.17m-15.26-.06c-.06-.11-.16-.15-.23-.08s0,.05,0,0,.07,0,0,0,0,.11.1.11.09,0,0-.08m14.21.1c0-.06-.07-.06-.1,0s0,0,0,0,.06,0,.06,0m-2.54,0c.07-.08,0-.08-.07,0s0,.07,0,.07a.17.17,0,0,0,.09-.07m-5.41,0s0-.06,0-.06,0,0-.09-.09a.68.68,0,0,1-.19-.19c0-.07-.07-.1-.1-.09s-.06,0-.06,0-.08-.22-.11-.18,0,0,0,.08a.56.56,0,0,1,.05.18c0,.23.1.38.23.38a.29.29,0,0,1,.17,0c.09.05.09.05.06,0m-2,0s0,0-.07,0-.06,0,0-.1,0-.09,0,0-.07.08,0,.17.15.08.15,0m-2.33,0a.2.2,0,0,0-.09-.06c-.05,0,.06.12.11.13s0,0,0-.07m-.86,0a0,0,0,0,0,0,0s0,0,0,0,.06.05.06,0m6.5,0s0,0,0,0a0,0,0,0,0,0,0s0,0,0,0,0,0,0,0m-.86,0a0,0,0,0,0,0,0s0,0,0,0,.06.05.06,0m-1.58,0a.14.14,0,0,0-.11,0s0,0,.06,0,.08,0,0-.05m-2.4,0a.05.05,0,0,0-.07,0q-.09.06,0,.06s.05,0,0,0m10.93.06s-.07,0-.09,0,0,0,.06,0,.06,0,0,0m-.3,0s0-.05-.06,0,0,.11.05.11,0,0,0-.07m-8,0s-.06,0-.06,0,.06.11.08.08,0,0,0-.07m6.64,0c.05,0,.07-.08.05-.08s-.2.09-.2.13.07,0,.15-.05m-1.51.05s0-.05,0-.05a.06.06,0,0,1,.06.05,0,0,0,0,0,0,0s0,0,0-.06,0-.09.11-.13.13-.15,0-.15-.11,0-.13.11,0,.1-.09.08-.15,0-.15.11a0,0,0,0,0,0,0s0,0,0,0m-.21-.12s-.07,0,0,.1,0,.08,0,0,0-.09,0-.1m-.3.12s0-.05.06-.05.12-.07,0-.11-.11,0-.14.1,0,.1,0,.1,0,0,0,0m3-.08s0-.05,0-.05,0,0,0,0,0,0,.07,0,.07,0,.11,0,0-.07-.07-.08-.11,0-.11-.07,0-.06-.1-.06-.07,0,0,0,.1.06,0,.11,0,0-.09,0-.07,0-.09,0,0,.06.06.09.06.07,0,.07-.07.16,0,.18a.22.22,0,0,0,.22-.13m-.32.12s0,0-.06,0-.07,0-.07,0,0,0,.07,0,.06,0,.06,0m-.27,0c.06,0,.09,0,.08-.07s0,0,.06,0,.11,0,0-.17-.08-.12-.11-.1,0,0,0,0,.06.09,0,.09-.11.06-.15.13-.05.15.13.11m-6.45-.12s0,0,0,0a.15.15,0,0,0,0,.1c0,.06,0,.07,0,0a.34.34,0,0,0,0-.1m-6.24,0c0-.09,0-.11,0-.07a.09.09,0,0,0,0,.11c0,.11.07.09.07,0m-.44.08s0,0-.05-.1-.09,0,0,0,0,.07,0,.09,0,0,0,0a.22.22,0,0,0,.1,0m10.86.05c.08-.09,0-.11-.06,0s-.06.08,0,.08a.15.15,0,0,0,.1-.07m-2.86,0s0,0,0,0a.1.1,0,0,0-.07,0s0,0,0,0a.13.13,0,0,0,.07,0m-7.36-.07c0-.06,0-.11,0-.12s0,0-.07,0-.12,0-.12.1,0,.12.08.13l.09,0s0,0,0-.1m15.82.11a.3.3,0,0,1,0-.11c0-.08,0-.08-.13,0s-.07.08,0,.11.15.07.15,0m-.46,0c.06,0,.08,0,0,0s0,0,0,0,.09-.1,0-.13-.11,0-.18.06-.06.11.09,0m-6.09-.09s0,0,0,0a.15.15,0,0,0,0,.1c0,.06,0,.07,0,0a.34.34,0,0,0,0-.1m-4.65.06c0-.06,0-.1-.11-.12s-.1,0-.06-.07a.16.16,0,0,0,0-.23s0,0,0,.08,0,.12,0,.12.07.26.21.3,0,0,0-.08m8.4,0c0-.06-.07,0-.1,0s0,.05,0,0,.06,0,.06-.07m-2.47,0c.08-.06.07-.06-.06-.06s-.13,0-.11.06.06.08.17,0m-.58,0s0,0,0,0,0,0-.06-.05,0,0,0,0,0,.09.07.09.06,0,0-.05m-4.82,0s-.11-.08-.14-.07,0,.05.07.09.18.09.07,0m-5,0a.15.15,0,0,0,0-.11s0,0-.09,0,0,.22.07.08m13.15,0c.05,0,.08-.06.07-.06-.23,0-.24,0-.31.09l-.07.12.11,0a.75.75,0,0,0,.2-.1m-3.09.09c.08-.06.08-.07,0,0a1,1,0,0,1-.15.07s0,0,0,0a.33.33,0,0,0,.15-.07m-11,0s-.06,0-.08,0,0,0,0,.07.12,0,0-.06m14.31.09s0,0,0,0,.39-.13.39-.2,0,0,0,0-.09,0-.2,0-.37.06-.32.17a.1.1,0,0,0,.09.07s.06,0,0,0m-7.26,0c.09-.07.06-.11-.09-.1s-.25.06-.25.14,0,0,.14,0a.42.42,0,0,0,.2-.07m-1.07-.65a.07.07,0,0,1,.06-.07s.07,0,.08-.1,0-.08,0,0,0,.12-.06.12a.1.1,0,0,0-.08.06s0,0,0,0m.37.6a.12.12,0,0,1,0-.17.27.27,0,0,0,0-.27.88.88,0,0,1-.07-.33c0-.24,0-.3-.19-.27s-.11,0-.09,0,0-.07.08-.07,0,0-.1-.06a.54.54,0,0,0-.48,0c0,.05,0,.09,0,.18l.07.12,0-.14c0-.11,0-.14,0-.14s.06,0,.06.09,0,.09,0,.09,0,0,0,.08,0,.07,0,.06,0,0,0,.06a.33.33,0,0,0,.16.15,1.12,1.12,0,0,1,.21.13.64.64,0,0,0,.2.11c.1.05.11.08.09.15a.71.71,0,0,1-.07.15s0,.06,0,.06,0,0,0,0,0,.05,0,.09.06,0,.09,0,0-.06,0-.11m-5.27.12h-.11s0,0,.06,0,.08,0,.05,0m-.45,0c-.06-.1-.16-.12-.16,0s0,.11.13.11.08,0,0-.08m-.27-.08c-.07-.21-.15-.23-.15,0s0,.17.18.2,0-.07,0-.16m13.7.13s-.05,0-.08,0,0,.05,0,0,.07,0,.06-.05m-3.61-.07c0-.1-.05-.09-.16,0l-.1.1.12,0a.21.21,0,0,0,.14-.11m4.29.12.27,0c.15,0,.18-.07.09-.17s0-.05,0,0a.3.3,0,0,0,.12,0s0,0,0,0,0,0,.07,0,.21-.19.13-.22a0,0,0,0,1,0-.05c0-.06.1,0,.1,0s0,.05.05,0a.15.15,0,0,0,0-.09c0-.08-.51-.06-.58,0a.85.85,0,0,1-.21.16c-.09.06-.15.12-.13.15s0,0,0,0-.1,0-.17.06-.11.08,0,.06l.24,0m-1.32,0s.05,0,.07-.08,0-.11,0-.11-.19.06-.19.16,0,.1.06.06a.11.11,0,0,1,.1,0M877,37.14s-.06,0-.1,0,0,.06,0,.1.16,0,.09-.1m-2.73-.41c.1-.07.17-.06.12,0a.19.19,0,0,1-.12,0h-.1Zm-.12.23c0-.05,0-.06,0,0s.09,0,.09.06-.07.05-.13,0m-.25.27a.14.14,0,0,0,.15-.06.09.09,0,0,1,.07-.06s0,0,0,.06,0,.07.07,0,.24-.1.21-.19,0-.07,0,0,.06,0,.11,0,.06-.09,0-.12a.14.14,0,0,1-.06-.08s0,0,.05,0,0,0,0-.06,0-.09,0-.09,0,0,0,0-.06,0-.1,0a.14.14,0,0,1-.14,0c-.07-.05-.14,0-.11,0s0,.06-.05.1-.09.07-.21,0a.62.62,0,0,1-.19-.14c-.06-.07,0-.07.08,0a.33.33,0,0,0,.21,0,.36.36,0,0,1,.21,0c.18,0,.1-.08-.09-.08a2.22,2.22,0,0,1-.64-.08c-.1,0-.18,0-.19,0a.49.49,0,0,1-.13.1c-.07,0-.09.07-.06.1s.07,0,.12,0,.06,0,.06,0,0,0,.13,0,.13,0,.13,0-.05.05-.14,0l-.14,0v.72l.24,0,.35,0m13.64,0s0-.06,0,0a.07.07,0,0,0,0,.07c0,.06.06,0,.06,0m-7.88,0a.4.4,0,0,0-.1-.13c-.09-.08-.13-.09-.19-.06s-.06,0,0,.09.13.06.14.09.11.06.11,0m-6.5,0a.13.13,0,0,0,0-.07s0-.06,0-.1,0-.06,0,0,0,.06.06.05.05-.27,0-.32a.22.22,0,0,1-.07-.16c0-.06,0-.1,0-.1s-.25,0-.25.1-.06.1-.13.15-.12.11-.08.2.13.14.11,0,0-.09,0-.05.2.25.22.18,0,0,.1.05.17.15.17.07m-1.61-.08c0-.05-.24,0-.24,0s.18.07.23,0,0,0,0-.07m14.88.08s-.06,0-.13,0-.12,0-.11,0,.24,0,.24,0m-4.2.06c.11-.07.14-.15,0-.15s-.21.13-.21.18,0,.05.16,0m-1.47-.14c0-.12.06-.18.1-.16s0-.17-.05-.21-.14,0-.08.07,0,.12,0,.12,0-.05-.08-.11-.14-.12-.12.12,0,.26,0,.31,0,.07.1.06.11,0,.14-.2m-3.17.14c-.13-.15-.18-.19-.2-.18s.17.25.22.25,0,0,0-.07m-3.8,0s0,0,0-.06-.16,0-.16.07S873.73,37.42,873.77,37.36Zm-3.15-.07s0,0,0,.06,0,.06,0,0a.08.08,0,0,0,0-.08m12.6.1c.07,0,.13,0,.13,0s.07,0,.14-.08.07-.15.06-.16-.16,0-.15.09-.07,0-.16.06-.24.06-.24.15.08,0,.22,0m-.28-.07.07-.14-.13.1c-.08,0-.13.11-.11.13s.1,0,.17-.09m-.29.07s0,0-.09,0-.12,0-.14,0,.19,0,.23,0m-.72,0a.1.1,0,0,1,.07-.09c.06,0,.06,0,0,0a.12.12,0,0,0-.11.06.12.12,0,0,1-.09.07.11.11,0,0,0-.09,0s0,0,.1,0,.14,0,.14-.08m-.35,0a.07.07,0,0,0-.06-.07c-.08,0-.13.08-.06.1s.12,0,.12,0m-3.33,0a.1.1,0,0,0,.1,0c.07-.1,0-.12-.09-.08a.4.4,0,0,1-.17,0,0,0,0,0,0-.06,0s0,.06.05.08.08,0,.09,0,0,0,.08,0M875,37.34s0,0-.08,0-.09.05-.09.06,0,0,.09,0l.08-.07m12.71.11s0,0-.05,0,0,.07,0,.07a.05.05,0,0,0,.05,0m-7.87-.26a1.42,1.42,0,0,0,0-.24c0-.09,0-.09-.16-.05a.3.3,0,0,0-.13.06s.13.15.16.15,0,.07,0,.17,0,.25.07.16a.58.58,0,0,0,.05-.25m-7,.29a.14.14,0,0,0-.08-.1c-.08-.05-.09-.05-.09,0s0,.11.09.11.08,0,.08-.06m-.25-.07c0-.13,0-.16-.15-.1s-.09.15,0,.2.18,0,.19-.1m13,0s0-.06.05-.07.07,0,0,0a.28.28,0,0,0-.14.06.11.11,0,0,1-.13,0c-.09,0-.09,0,0,.12s.08.08.16,0,.07-.1.06-.13m-2.89.16a.05.05,0,0,0-.07,0q-.09.06,0,.06s0,0,0,0m-.56,0s0-.06,0-.07-.16,0-.16.07.11.05.15,0m-3.36,0s0-.09-.07-.14-.09-.09-.12,0,0,.22.08.22a.16.16,0,0,0,.11,0m-2.32-.08s0,0,0,.06,0,.06,0,0a.14.14,0,0,0,0-.09m6.92.07c.06-.09,0-.14-.09-.1s-.07,0,0,.07,0,0-.1,0-.24,0-.08.07.2,0,.26,0m-2.77,0s0,0,0,0,0,.07,0,.07a0,0,0,0,0,0-.05m7.51.05a.08.08,0,0,1,.09,0s.06,0,.06,0,0-.05.07-.05a.1.1,0,0,0,.08,0s-.07,0-.21,0-.23,0-.19.06,0,.06,0,.06-.07,0-.07.05.16,0,.19,0m-1.25,0c0-.06-.1-.06-.1,0s0,0,.06,0,.06,0,0,0m-1.07,0c-.07,0-.08,0,0-.06a1.75,1.75,0,0,1,.53-.07c.09,0,.09,0,0,0a.79.79,0,0,0-.51,0c-.16.18-.17.21,0,.21s.11,0,0,0m-4.35,0s.07-.05.12-.05.07,0,0,0-.25,0-.26.05.05.11.1,0m-1.82-.09c0-.11,0-.15-.07-.19s-.33-.12-.33-.07a0,0,0,0,0,.05,0s0,0,0,0,0,.07.11.17a.73.73,0,0,0,.19.14.23.23,0,0,0,.05-.13m7,.11s0-.07-.11-.07-.14,0-.08.1.19,0,.19,0m-1.51-.06c0-.08-.18-.05-.2,0s0,.06.06,0,.09,0,.07.05,0,.06,0,0a.28.28,0,0,0,0-.12m-12,.06s-.07-.06-.07,0,.1.15.12.13,0-.06,0-.09m-2,.06s.06,0,.07,0,.31-.1.39-.22.07-.07.09-.05l.21.06a1.12,1.12,0,0,1,.26.06c.06,0,.07,0,.07-.1s0-.19-.13-.14-.09,0-.11,0a.1.1,0,0,0-.07,0s0,0,0,0-.09,0-.26,0a1,1,0,0,1-.36,0,.26.26,0,0,0-.18,0c-.12,0-.13,0-.11.14a.76.76,0,0,1,0,.21c0,.11,0,.12.1.05m-1.56-.05s-.15,0-.15,0,.05.09.11.07,0,0,0-.07m8,.1c0-.06-.14-.22-.18-.21s0,.07-.06.13,0,.11.11.11.13,0,.13,0m10,0s-.06,0-.1.05-.07.08,0,0,.09-.06.07-.08m-1.87.08s0,0-.08,0-.14,0-.14,0,.13.05.22,0m-1.47-.06c.21-.07.27-.11.24-.21s0-.08,0-.06,0,0,0,0a.08.08,0,0,0,0-.07c-.07,0,0-.11,0-.11a.07.07,0,0,0,.07-.07.07.07,0,0,1,.07-.06c.06,0,.07,0,0-.06s-.26,0-.46.14-.24.27,0,.22.29-.05.26,0-.11.07-.26.08-.26,0-.32.12a.26.26,0,0,0-.08.14s.23,0,.47-.07m-1.46,0s0-.07,0-.07,0,0,0,.07.06.08.06,0m-1.17,0s0,0-.08,0-.09,0-.09.07,0,0,.09,0l.08-.06m-7.74,0a.08.08,0,0,0,.08-.07c0-.07-.05-.08-.11,0a.11.11,0,0,1-.11,0c-.05,0-.05,0,0,0s.08,0,.08,0-.11-.09-.3-.09-.16,0-.17,0a.07.07,0,0,0-.05,0s0,.06,0,.13.09.13.12.13.07,0,.07,0,0,0,.08,0,.09,0,.09,0,0,.12,0,.07a.21.21,0,0,1,.13-.05m12.78.08a0,0,0,0,0-.08,0,0,0,0,1,0,.08,0m-1.88,0a.1.1,0,0,0-.09,0s0,0,.06,0,.06,0,0,0m-1.15-.22s-.06,0-.09.14l0,.13.07-.13c0-.06,0-.13,0-.14m-.2.07s0,0-.09,0a1.21,1.21,0,0,1-.25,0c-.1,0-.13,0-.09,0s0,.06,0,.12,0,.07,0,0a.28.28,0,0,1,.18,0s.09,0,.15,0a.22.22,0,0,0,.07-.1m-1.59.16a.29.29,0,0,1,0-.09s0-.07,0-.07a.08.08,0,0,0-.07.09c0,.05,0,.09,0,.09s0,0,0,0M875,37s.06,0,.07,0,0,.1-.08.1,0,0,0-.06m-.79.81.18-.07a1.06,1.06,0,0,0,.21-.11c.11-.08.17-.14.17-.21s.18-.18.35-.18.14-.07.09-.16a.16.16,0,0,1,0-.15.1.1,0,0,0,0-.14s-.06,0-.08,0a.19.19,0,0,1-.11,0h-.17a.92.92,0,0,0-.35.24c-.25.24-.29.3-.18.26s.07,0,.07,0-.06,0-.14,0-.12,0-.1,0-.18-.09-.26-.06a.14.14,0,0,0,0,.24.27.27,0,0,1,.09.2c0,.16,0,.16.25.06m12.57,0s0-.05,0,0a.14.14,0,0,0-.08.07s0,0,0,0a.12.12,0,0,0,.07-.07m-.43-.13s0,0,0,0,0,0,0,0,0,0,0,0a.19.19,0,0,0-.2.15s.27-.1.29-.17m-5.66.18s0-.15-.06-.12a.11.11,0,0,0,0,.09c0,.06,0,.08.1,0m-10.29,0c0-.06-.06-.06-.06,0a0,0,0,0,0,0,0s0,0,0,0m16.81,0s-.16,0-.16.08,0,0,.09,0,.08-.06.07-.07m-.17,0c.13-.06.23-.12.23-.15s-.12,0-.27.1a.46.46,0,0,1-.16.08,0,0,0,0,0-.05,0c0,.06,0,.06.25-.07m-9.51.07c0-.07-.07-.09-.13,0s0,.06,0,.06.09,0,.09,0m-6.82,0c.08-.08.08-.09-.07-.13s-.09,0-.07,0a1,1,0,0,1,0,.11c0,.06,0,0,.11,0m15.74.07,0-.09s0,0-.06,0a.13.13,0,0,0,0,.09s.1,0,.1,0m-1.24-.06s.07-.06,0-.08-.36.09-.36.14.19,0,.31-.06m-1,0s0,0-.07,0-.09,0-.09.06.13.07.16,0m-1.67-.09s0-.05-.1,0-.12,0-.09.12,0,.06.11,0a.19.19,0,0,0,.08-.11m-2.71.1s0-.06-.05,0,0,.11,0,.11.05,0,.05-.07M888,38h-.08s0,0,.06,0,.06,0,0,0m-.65,0s0-.06,0-.06a.22.22,0,0,0-.1.06s0,.07,0,.07a.15.15,0,0,0,.1-.07m-16.37,0a0,0,0,1,0-.08,0,0,0,0,0,0,.08,0m15.72,0c0-.06-.09-.05-.13,0s0,.09,0,0,.09-.05.09-.07m-2.16,0,.12-.06h-.12c-.07,0-.11,0-.1,0s0,.05,0,.05-.07,0-.07,0,0,0,.05,0l.16-.09m-3.41,0c0-.06,0-.09,0-.06s.1.06.1-.06,0-.13-.16,0-.1.11,0,.17.11.08.08-.06m-3.23,0s0,0,0,.06,0,.06,0,0a.14.14,0,0,0,0-.09m-1.14-.31s0,0,0-.06,0,0,.07,0,0,.09-.06,0m.1.35s.07-.05.08-.11a.46.46,0,0,0-.27-.45c-.13-.05-.13,0-.13.12s.22.58.25.48a.08.08,0,0,1,.07,0m-4.28-.11s0,0,0,0,0,0,0,0a0,0,0,0,1,0,0s0,0,0,0m-.48,0c0-.06.12-.11.16-.07s0,0,0,.07-.13,0-.13,0m.28.13a.09.09,0,0,0,0-.11c-.05-.06,0-.06.12,0s.18,0,.18,0,0,0,.07,0,0,0-.06-.13a.37.37,0,0,0-.32-.14.84.84,0,0,1-.3-.06.47.47,0,0,0-.51,0c-.13.11-.1.16.09.16a.35.35,0,0,1,.19.1.92.92,0,0,0,.3.14c.23.07.23.07.26,0m14.45,0a0,0,0,0,0-.08,0,0,0,0,1,0,.08,0m-6.87,0s0-.06,0,0,0,0,0,.07.07.06,0,0m-8.12,0s0,0,0,0,0,.07,0,.07a0,0,0,0,0,0,0m-.54-.09s.21-.08.26,0,0,0-.1.06-.15,0-.16,0m.39.06s0,0,0,0,0,0,0,0,0-.08-.28-.12-.33,0-.28.18.05.09.29.09.28,0,.3-.06m16,0c.16-.08.16-.1,0-.07s-.14,0-.14.08,0,.07.17,0m-10.08,0a0,0,0,1,0-.08,0,0,0,0,1,0,.08,0m10.4,0a.14.14,0,0,0-.11,0c-.05,0-.07,0-.06,0a.18.18,0,0,0,.11,0s.08,0,.06,0m-2.21,0c0-.06,0-.07,0-.07a.07.07,0,0,0-.07.07C885.63,38.25,885.65,38.25,885.72,38.17Zm-1.74,0s.06,0,.06,0a.93.93,0,0,0-.47-.1s0,0,0,0a.19.19,0,0,1,.12.09.1.1,0,0,0,.13.06.3.3,0,0,1,.12,0m-4.15,0s0-.06-.05-.05,0,0,0,.07.07.05,0,0m7.26.09s0-.06-.07,0l-.2,0s-.06,0-.05.05.26,0,.32,0m-2.54,0a.22.22,0,0,1,.16,0s.06,0,.06,0,0-.06-.22,0-.17.06-.17.08,0,0,.17,0m-7.64,0a.1.1,0,0,0-.07-.05s0,0,0,.07.11.05.07,0m-5.56,0s0,0-.1,0-.14,0-.14.07,0,.06.1,0a.6.6,0,0,0,.14-.07m16.66.11a.1.1,0,0,0-.09,0s0,0,.06,0,.06,0,0,0m-.24,0s0-.05-.11-.05-.12,0-.08.06.17.06.19,0m-1.26-.1c-.07,0-.23.07-.23.12s.06,0,.14,0,.12-.08.09-.09m-.57.12a.49.49,0,0,1,.17-.06c.11,0,.16-.07.08-.07a1.3,1.3,0,0,0-.42.15s.07,0,.17,0m-.27,0s-.07,0-.1,0,0,0,0,0a.06.06,0,0,0,.06,0m-.9,0s0,0-.07-.07-.08,0,0,.08.1,0,.1,0m-12.18-.12a.07.07,0,0,1,.08,0s0,0,0,0-.07,0-.06,0m.19.13c.13-.13-.09-.34-.25-.24s-.1,0-.13,0,0,0-.08,0,0,.06.07.1a1.15,1.15,0,0,1,.2.14c.1.1.11.1.19,0m15,.08h-.1s0,0,0,0,.08,0,0,0m-16.33-.05c0-.11,0-.11-.19,0s-.12.09.06.1.13,0,.13-.07m11.93.08c0-.05-.07-.05-.11,0s0,0,0,0,.07,0,.07,0m-7.67,0s0,0-.07,0-.07,0,0,0,.08.06.08,0m-2.38-.05c.08-.07.07-.12,0-.12s-.08,0-.06,0,0,.06-.1,0-.16.06-.12.13.22,0,.31-.05m-2.25.05c0-.05-.06-.05-.06,0a0,0,0,0,0,0,0s0,0,0,0m-.16,0a.34.34,0,0,0-.07-.11c-.06,0-.05,0,0,0s.12,0,.12-.06-.08-.12-.22-.12-.15.08-.08.13,0,0,0,.06,0,.2.12.2a.05.05,0,0,0,0-.06m-.25,0s0,0-.06,0-.06,0,0,0,.1.06.1,0m6.52,0a.4.4,0,0,0,0-.18l0-.1-.09.09c-.08.08-.08.09,0,.18s.13.11.16,0m-2.42-.59c0-.07,0-.11,0-.08a.19.19,0,0,1,0,.13s0,0,0-.05m.3.2a.08.08,0,0,1,0-.07s0,0,0,0-.06.09-.06,0m.34,0a0,0,0,0,1,0,0,0,0,0,0,1,0,0,0,0,0,0,1,0,0,0,0,0,0,1,0,0m-.63.38s0,0,.06,0,.16,0,0-.11a.19.19,0,0,1-.08-.11c0-.07-.05-.07-.11,0s-.37,0-.37,0,0,0,.1,0,.11,0,.15-.11.07-.14.1-.14,0,0,0,.09,0,.17,0,.1.07,0,.15.08l.1.14,0-.11,0-.1v.11c0,.13.07.2.11.13a.09.09,0,0,1,.09,0,.14.14,0,0,0,.12,0,.28.28,0,0,1,.14-.06,0,0,0,0,0,.05-.06c0-.1.19-.14.25-.06s.17.09.13,0,0-.07,0,0,.12.06.12,0,0-.11-.16-.14-.27-.09-.27-.15.07,0,.15,0,.29,0,.19-.16l-.16-.26c-.16-.24-.23-.26-.49-.13s-.55.32-.55.42,0,.08,0,0-.06-.05-.18,0a1.27,1.27,0,0,1-.35.17L874,38l.14.11a.47.47,0,0,1,.13.18.07.07,0,0,0,.07.07s.06,0,.06,0,0,0,.08,0,.06,0,0,0,0,.1.17.12.12,0,.1,0Zm-1.86-.05s0,0,0,0,0,.06.06.05,0-.05,0-.08m13.5,0s.08-.06.1,0,.18,0,.18-.14,0,0-.09,0-.09.06-.09,0,0,0-.06,0a1.43,1.43,0,0,1-.22.14l-.17.09.15,0a.41.41,0,0,0,.2-.09m-.37,0c.05-.06.09-.12.08-.13s-.2.08-.22.16,0,.1.14,0m-11.89,0-.16-.18s0,0-.1,0-.11,0,0-.1.06-.07,0,0a.17.17,0,0,1-.18-.05l-.07,0s0,0-.07,0-.06,0,0,0,0,.05,0,.05,0,0,0,0-.09-.07-.19-.11-.21-.07-.26,0-.07,0-.07,0a0,0,0,0,1,.05,0c.06,0,0-.09,0-.12a.13.13,0,0,0-.12,0s0,.06,0,.07a.06.06,0,0,1,0,.08s0,.07,0,.07,0,.06,0,.15,0,.19.1.1a.4.4,0,0,1,.19-.05l.27,0c.1,0,.12,0,.16.07a.3.3,0,0,1,0,.16s0,.05,0,.05a.07.07,0,0,0,.07-.05s0,0,0,0a2.18,2.18,0,0,0,.51.23s0-.07-.11-.16m11.49.18c.05,0,.1-.06.1-.1s0,0,0,0-.05,0-.09,0-.06,0,0,0,0,0-.07.07-.07,0,0,0l.16,0m-.38,0s0,0-.15,0-.07,0,0,0,.11,0,.11,0m-9.92,0s0,0,0,0a.11.11,0,0,0-.09,0s0,.05,0,.05a.12.12,0,0,0,.1-.05m11.73,0c0-.05-.05-.08-.13,0a.3.3,0,0,1-.15,0s-.06,0,0,0,.26,0,.32-.06m-1.72-.52s0,0,0,0,.05,0,.05,0a0,0,0,0,1-.05,0s0,0,0,0m-.37.28s0,0,0,0,.07,0,.07,0-.07.06-.11,0m-.36.27a0,0,0,0,1,0-.05c.06,0,.06,0,0,.06s0,0,0,0m.27,0a.73.73,0,0,0,.2-.13l.16-.1c.09,0,.14-.11.14-.16s0-.08.06-.08a.31.31,0,0,0,.15-.11.5.5,0,0,1,.24-.13c.09,0,.16,0,.16-.09s-.1-.06-.28,0a1.33,1.33,0,0,1-.28.1l-.36.1c-.2.06-.21.07-.18.19s0,.12,0,.1-.07,0-.07,0-.24.2-.29.14,0,0,0,0a.1.1,0,0,0,.06-.09c0-.06,0,0-.1,0l-.09.09.1.11c.12.13.17.14.4,0m-5.23,0s0-.06,0-.06,0,0,0,.06,0,.09,0,0m-2.33,0c-.05-.07-.12-.12-.12-.07s.06.16.11.16,0,0,0-.09m-1.35,0a.25.25,0,0,1,.16,0c.12,0,.14-.06,0-.11s-.16-.05-.12,0,0,0,0,0a.14.14,0,0,0-.17,0c-.07.06-.08.06,0,.06s.07,0,0,.06,0,.09.12,0m-4.28-.32a0,0,0,1,1,.08,0,0,0,0,0,1-.08,0,0,0,0,0,1,0,0m.53.36c.06,0,.07,0,0-.06s0,0,.09,0,.15,0,.06-.08a1.79,1.79,0,0,0-.44-.31s-.05,0-.05.08,0,0,0,0-.11-.07-.24,0-.16.12-.13.17a1.17,1.17,0,0,0,.47.2l.18.05Zm2.8,0s0-.07,0-.08-.23.08-.19.11a.13.13,0,0,0,.2,0m-1.85-.06c-.09,0-.2,0-.17.08s.07,0,.13,0,.09,0,0-.06m-1.91.08s0,0-.08,0-.07,0,0,0,.09,0,.09,0m5.66.09s0-.06-.06-.09-.14-.05-.09,0,.11.11.15,0m-1.7,0c-.06,0-.06,0,0,0a.15.15,0,0,1,.1,0c0,.07.19,0,.22,0a.07.07,0,0,1,.08,0,.07.07,0,0,0,.08-.05s0-.06-.08,0-.1,0-.08,0-.05-.09-.14,0a.29.29,0,0,1-.18.07.29.29,0,0,0-.17.06c-.05,0,0,.06,0,.07s.19,0,.12,0m-2.24,0s0-.07,0-.07,0,0,0,.06,0,0,0,0-.07,0-.07,0a.07.07,0,0,0,.08.07c.05,0,.09,0,.09-.06m12.36,0c0-.06-.18,0-.2,0s0,0,.09,0,.11,0,.11-.06m-1,0s0,0,0,0a.1.1,0,0,1,.07,0s0,0,0,0a.13.13,0,0,1-.07,0m.12.06c.07,0,.07-.06-.07-.21a.47.47,0,0,1-.16-.24c0-.09,0-.09-.1,0s-.1.09-.08.14,0,.06-.05,0-.07,0-.07,0,.08.09.19,0,.19,0,.07.14a.49.49,0,0,1-.24.08c-.08,0-.15,0-.15,0a1.48,1.48,0,0,0,.66,0m-12.44,0c0-.05-.1-.08-.13-.07s-.07,0-.08,0a.43.43,0,0,0-.21-.06l-.27-.06c-.07,0-.06,0,0,.07l.16.13a.2.2,0,0,0,.16,0,.27.27,0,0,1,.16,0,.34.34,0,0,0,.16,0c.1,0,.1,0,0-.09m14.35,0a.11.11,0,0,0-.09-.08c-.08,0-.08,0,0,0s.08.05.08.07,0,.07,0,.07,0,0,0-.08m-1.42,0c.17-.12.16-.13-.06,0s-.14.07-.14.1,0,.08.2,0m-.31.07s0,0-.06,0,0,.06,0,.06.06,0,0,0m-1.18-.06s0,0-.07,0l-.09,0s0,0,0,0,0,0,.08,0,.09,0,.09-.07m-4,.06a.07.07,0,0,0-.05-.06s0-.17.12-.28.07-.12,0-.19-.06,0,0,0a.88.88,0,0,1-.07.29c-.07.17-.09.26,0,.27s.11,0,.11,0m-3,0s-.27-.15-.29-.13,0,0,0,.09.24.1.24,0m-.54,0s0,0,0,0a.1.1,0,0,0-.07,0s0,0,0,0a.13.13,0,0,0,.07,0m7.17,0c.08,0,0,0-.11,0s-.06,0,0,0a.28.28,0,0,0,.13,0m-1.06,0s0,0-.06-.06-.08,0,0,0,.07.08.1,0m-6.42,0h-.11s0,0,.05,0,.09,0,.06,0m-3.18,0s0,0,0,0-.07,0-.07,0,.08.06.11,0m1.08,0c.05,0,.11,0,.12,0s0,0,0,0,0,0,0,0,.32,0,.32,0a.1.1,0,0,0,.07,0c.12.05.06,0-.08-.14s-.13-.09,0-.09a.42.42,0,0,1,.23.13c.16.16.34.22.34.11s.06-.09.1,0,0,0,0,0-.08-.06-.18-.1c-.66-.24-.87-.28-1-.17s0,.13.07.06.06,0,.06,0-.06.09-.17,0-.27,0-.26.1.3.22.33.15.06,0,.12,0m3.6-.08c-.08-.08-.1-.08-.14,0s0,.18,0,.18,0,0,0-.07,0-.06,0-.06.06,0,.07.09,0,.07.07,0,0-.08-.05-.15M874,39.1c0-.06-.06-.06-.06,0a0,0,0,0,0,0,0s0,0,0,0m-.15-.05s-.06-.08-.07-.06,0,.15.07.15,0,0,0-.09m10.06,0s0,0,0,0-.28,0-.28.09.27,0,.33-.06m-2.87,0c.09,0,0-.09-.07-.06s-.09.05-.07.07.06.05.14,0m-2.58-1s0-.07,0-.06a.09.09,0,0,1,0,.09s0,0,0,0m-.39.19a.17.17,0,0,0,0-.13s0,0,0,0a.13.13,0,0,1,0,.21c-.1.06-.13,0-.08,0m.3.17a0,0,0,0,1,0,0s.05,0,.06-.08,0-.08.08,0,.06.06-.05.12-.13.06-.13,0m.42.47a.91.91,0,0,0,.19-.65.25.25,0,0,1,.08-.24.29.29,0,0,0,.09-.14.69.69,0,0,0-.19-.21c-.15-.14-.19-.16-.24-.11s-.08,0-.22,0-.16-.09-.14-.13,0-.06,0-.06-.06,0-.07.11,0,.11-.08.11,0,0,0-.05,0-.07-.11-.13l-.16-.08s-.06.28,0,.32a.5.5,0,0,1,.07.19c0,.08,0,.14.08.14s0,0,0,.06a.12.12,0,0,0-.06.12,1.37,1.37,0,0,1,0,.2c0,.16.11.3.12.18s0,0,0,0,.06.06.11,0,.06,0,0,.1,0,.16,0,.19,0,0,.09,0,.1,0,.1.07,0,.11.17.13a1.18,1.18,0,0,0,.16-.18m-5.11.14a0,0,0,0,0-.05,0s0,0,0,0,.07.06.07,0m7.66,0s0,0,0,0a.13.13,0,0,0,0,.1c0,.06,0,.06,0,0a.34.34,0,0,0,0-.1m-5,0c0-.06,0-.08-.09-.08l-.17,0c-.1,0,0,.11.08.16s.18.05.18,0m7.71.09s0,0,0-.06,0,0,0,0,0,.08.08,0m-1.18,0s0-.05-.09,0-.11.1,0,.1.09,0,.09-.06m-.74,0a0,0,0,0,0-.08,0,0,0,0,0,0,.08,0,0,0,0,0,0,0,0m-7,0a.09.09,0,0,1,0-.08s0-.06-.09-.06-.12.06,0,.1,0,0,0,0,0,0,.07,0,.08.09.1.07,0,0,0,0m-.31,0c0-.06,0-.07,0-.07s-.08,0-.06.07,0,.08.1,0m9.77-.12c-.09,0-.25.06-.25.14s.15.07.25,0l.09-.09Zm-8.43.16c-.08,0-.13-.08-.12-.1s0,0-.08,0h-.11a1.18,1.18,0,0,0,.39.18s0,0-.08-.06m-.87,0c0-.08,0-.08-.06,0s0,.07,0,.07,0,0,0-.07m5.75,0,.13-.06-.12,0a.22.22,0,0,1-.21,0c-.08-.07-.08-.07-.08,0s.08.15.28,0m-6.12,0c0-.07-.1-.09-.1,0s0,0,.11.09,0,0,0-.07m2.78.07a0,0,0,0,0-.08,0,0,0,0,0,0,.08,0,0,0,0,0,0,0,0m-3.14-.09c-.1-.06-.15,0-.06.08s.08,0,.1,0a.11.11,0,0,0,0-.09m5.19.11s-.07-.05-.16-.06-.22,0-.11.1.27,0,.27,0m-4.59,0s0,0-.06,0-.06,0-.05,0,.11.06.11,0m9.25,0a.05.05,0,0,0,0-.07s-.07,0-.07,0,0,0,0,0a.23.23,0,0,0,0,.14c0,.08,0,.1.09.09s.11,0,.11-.09m-1.32,0s0,0-.07,0,0,0,0,.05.11,0,.11,0m-4.78,0s0,0,0,0a0,0,0,0,0,0,.05s0,0,0,0,0,0,0,0m-3.52,0s-.09-.08-.11-.07,0,.1,0,.12.14,0,.07-.05m9.91.07a.29.29,0,0,0,.17,0l.17-.07a1.41,1.41,0,0,0,.5-.42s-.12,0-.27.06l-.34.08a.82.82,0,0,0-.27.19c-.19.19-.25.28-.14.22a.42.42,0,0,1,.18,0m-2.64,0c.1,0,.11-.07,0-.11s-.36.07-.36.12.06,0,.13,0l.22,0m-.82,0s0,0,0,0-.05.06,0,.06a0,0,0,0,0,0,0m-1.79,0s0,0,0,0-.08,0-.09,0,.09,0,.13,0m-3.56,0a0,0,0,0,0,0,0s0,0,0,0,.06.06.06,0m7.05,0c-.12-.08-.16-.07-.08,0s.09.07.11.06,0-.05,0-.09m-7.38.07s0,0,.09,0,.13,0,.08,0-.25-.09-.26,0,.06.11.09,0m8.16.07c.08-.08,0-.08-.1,0s-.06.06,0,.07a.22.22,0,0,0,.12-.07m-.31,0c.1,0,.18-.11.17-.13s0,0,.08,0,.33-.1.32-.18-.48,0-.67.24a1.23,1.23,0,0,0-.12.2Zm-9.68,0c.1,0,.18-.09.18-.11s-.18-.08-.24,0a.25.25,0,0,1-.13.06s-.06,0-.06.09,0,.09,0,.08l.22-.1m10.26.11s.07-.06.15-.09l.16-.06-.12-.05c-.14-.06-.32,0-.32.1a0,0,0,0,1,0,0,0,0,0,0,0,0,.05s.05,0,.1,0,.11,0,.11,0m-3-.07c.06-.12,0-.2,0-.13s-.1.24-.06.24.06,0,.09-.11m-6.65.07c0-.06-.06-.06-.06,0a0,0,0,0,0,0,0s0,0,0,0m-.13,0s0-.06,0-.06,0,0,0,.06,0,.09.06,0m-.23,0c.06-.07,0-.07,0,0s-.12.09-.06.09a.15.15,0,0,0,.1-.07m8.36,0c0-.07,0-.07,0,0a.21.21,0,0,0-.07.08s0,0,.09-.06m-.4-.08a.24.24,0,0,0-.23.09c0,.05,0,.05.11,0a.36.36,0,0,0,.12-.09m-2.58.13a1,1,0,0,0-.07-.18c-.08-.16-.16-.19-.23-.06s0,.09,0,.09.05,0,.07,0,0,0,0,0a0,0,0,0,0,0,0s.05,0,0,0a.1.1,0,0,0,0,.12c.07,0,.12,0,.12,0m-3.14-.11s0,0-.07,0a.1.1,0,0,0-.06.09s0,0,.06,0a.17.17,0,0,0,.07-.09m-1.51.14s0,0-.09-.06-.08,0-.08,0,0,0,.07.06l.09,0a0,0,0,0,0,0,0m9.57.05h-.11s0,0,.06,0,.08,0,0,0m-2.81,0c0-.14.06-.24,0-.24a.61.61,0,0,0-.27.28s0,.07.11.07a.15.15,0,0,0,.15-.11m-3.6.06a.08.08,0,0,0-.07,0s0,0,0,0a.08.08,0,0,0,.07,0s0,0,0,0m-1,0s0-.06,0-.06,0,0,0,.06,0,.08,0,0m-2.29,0s0,0-.07,0-.06,0,0-.05,0,0,0,0a.08.08,0,0,0,0,.09c0,.07.15.09.15,0m4.66,0c.07-.05.07-.06,0-.11s-.07,0-.07,0,0,0-.1-.07-.11-.09-.11,0a.07.07,0,0,0,.06.07s.07,0,.07.11,0,.13.14.05m5.16.06s-.06,0-.12,0-.11,0-.06,0,.18.05.18,0M882,39.92s0,0,0,0a.38.38,0,0,0-.16.09c-.07.07-.08.08,0,0a.54.54,0,0,0,.15-.09m-3,0c0-.09-.08-.16-.12-.12s0,.2.07.2,0,0,0-.08m-.17,0c0-.06,0-.07-.05,0s0,.12,0,.12,0,0,0-.09m-1.73,0a0,0,0,0,0,0,0,0,0,0,1,0,0,.08,0,0,0,0,0,0,0m9.39,0s0,0-.08,0-.14,0-.14,0,.17,0,.22,0m-1.94,0c.05-.05,0-.06,0-.06s-.16.05-.11.1.08,0,.14,0m-4.91-.28c-.09,0,0-.1.07,0s0,0,0,.06-.07,0-.1,0m.06.23c0-.07,0-.09.07-.07s.08,0,.05-.1a.42.42,0,0,1,0-.18c0-.08-.06-.1-.2,0s-.16.12-.09.17,0,.06,0,.11,0,.09,0,.09,0,0,0,.07,0,.06.07.05.12,0,.12-.11m-3.06,0c0-.05,0-.07-.06-.05s0,.2,0,.16,0-.06,0-.11m-.22,0c0-.06,0-.1,0-.1s0,0,0-.07,0-.06-.1,0a.87.87,0,0,0-.11.18c0,.09,0,.1.07.09s.1,0,.09-.11m-2.51.07s0,0,0,0a0,0,0,0,1-.06,0c0-.06-.16,0-.16,0s.06.06.13.06.13,0,.13,0m10.1.05c0-.06-.06-.06-.06,0a0,0,0,0,0,0,0s0,0,0,0m-2.65,0s-.05,0-.11,0-.11,0,0,0,.15,0,.15,0m-7,0c0-.1,0-.1-.06,0s0,.08,0,.08,0,0,0-.08m10.42.09s0,0-.08,0-.06,0,0,0,.09,0,.09,0m-.55,0s-.07,0-.09,0,0,0,.06,0,.06,0,0,0m-.36,0a.28.28,0,0,0-.13,0s0,0,0,0,.18,0,.1,0m-8.53-.09c-.11-.07-.14,0-.06,0s.09.06.1,0,0-.06,0-.08m11.18.14s0,0-.13,0a.27.27,0,0,0-.15,0s.25,0,.28,0m-1.46,0s-.07,0-.07,0a0,0,0,0,0,0,0s0,0,0,0m-8.55,0s0,0,0,0-.05.07,0,.07a0,0,0,0,0,0,0m-2.33,0,0,0s0,0,0,0,0,0,0,0,0,0,0,0m-.69,0,0,0a0,0,0,0,0,0,0s0,0,0,0,0,0,0,0m12.59,0c0-.06,0-.08.07-.08s.09,0,.09-.05-.26,0-.34.07-.06.07,0,.05.1,0,.12,0,.07.08,0,0m-7,0a.06.06,0,0,0-.06-.06s0,0,0,.06.1.09.1,0m-4,0s0,0-.07,0a.06.06,0,0,0-.06,0s0,0,.06,0,.07,0,.07,0m-2-.05s0,0,0,.06,0,.06,0,0a.11.11,0,0,0,0-.08m12.44.07.09-.09-.13,0-.21,0c-.06,0-.06,0,0,.06s.18.08.27,0m-.84.06c0-.06-.25-.09-.32,0s0,0,.13.06.19,0,.19,0m-9.84-.16c-.07-.12-.27-.16-.22,0a.12.12,0,0,1,0,.1s0,0,0,0,.08,0,.08-.06,0,0,0,0a0,0,0,0,1,0,.07s0,0,0,0,.05,0,.05,0,0,.05,0,0a.24.24,0,0,0,0-.16m8.27.05c.13-.07.23-.16.22-.18s-.08-.05-.17-.06-.18,0-.28.13a2.54,2.54,0,0,1-.2.23c-.08.08-.08.08.06.05a1.28,1.28,0,0,0,.37-.17m-1.9.11c.07-.08.07-.09,0-.12a.18.18,0,0,0-.19.16c0,.07.11,0,.19,0m-1.83,0a.1.1,0,0,0-.06-.18s-.07,0-.07.11,0,.13.13.07m-5.81,0s0,0-.05,0a.08.08,0,0,0,0,.07s0,0,0,0a.07.07,0,0,0,.05-.06m7.37,0c0-.1.06-.18,0-.18a.79.79,0,0,0-.17.33c0,.08.08,0,.14-.15m-2,0c0-.09-.19-.16-.24-.11s.14.28.21.22a.11.11,0,0,0,0-.11m-1.65.12a0,0,0,0,0-.05,0s0,0,0,0,.07,0,.07,0m-1.47,0c0-.07-.28-.22-.37-.18s-.07.11.08.17.29.08.29,0m-3,0s0,0-.07,0a.06.06,0,0,0-.06,0s0,0,.06,0,.07,0,.07,0m9.77-.7s.12,0,.16,0,0,.05-.07.05-.09,0-.09-.05m-.05.35a1.06,1.06,0,0,0,.31-.35l-.09-.08c-.08,0-.11,0-.27.09l-.4.3c-.25.16-.28.23,0,.09s.22-.07.07,0-.08.07-.06.1,0,0-.09,0-.29,0-.26.06.06,0,.1,0,.07,0,0,0-.08.07-.08.09a1.3,1.3,0,0,0,.38-.18,3.43,3.43,0,0,1,.43-.21m-2.81.33c.1-.13.08-.16-.1-.16s-.18,0-.2.1a.24.24,0,0,0,0,.12c0,.06.25,0,.3-.06m-4.15.12a.07.07,0,0,0-.08,0s0,0,.05,0,.07,0,0,0m-.21,0s0-.06,0-.05l-.13,0c-.09,0-.14,0-.14,0s0,0,.06,0,.08,0,.11,0,.07.08.1,0m8.73,0s0-.06,0-.06,0,0,0,.06,0,.07,0,.07,0,0,0-.07m-2.41-.06c0-.08-.08,0-.13.05s0,.08,0,0,.09-.07.09-.09m-6.89.07c0-.07-.08-.14-.11-.1s0,.16.07.16,0,0,0-.06m-.37-.08c0-.14,0-.16-.08,0s0,.08,0,.09,0,0,0,.05,0,0,0,0,.06-.07.06-.13m2.29.07s0,0-.07,0,0,0,0,.06.11,0,.06-.07m5.19.08c.05-.06.05-.06,0,0s-.12.1-.06.1a.22.22,0,0,0,.1-.08m-4.91.05a.07.07,0,0,0-.08,0s0,0,.06,0,.06,0,0,0m4-.05c.1-.15,0-.16-.12,0s-.09.14,0,.12a.27.27,0,0,0,.14-.11m-3.52.09a.43.43,0,0,0-.06-.12c-.06-.09-.29-.08-.32,0s0,0,.08,0,.09,0,.06,0,0,.09.11.09a.21.21,0,0,0,.13,0m-2.78-.06c0-.07-.14-.11-.2,0a.1.1,0,0,0,0,.1c0,.07.22,0,.22,0m-1.64.09c0-.06-.1-.06-.1,0s0,0,.06,0,.06,0,0,0m8.25-.06s-.05,0-.08.07,0,.1,0,0,.07-.08.06-.09m-8-.13s-.19,0-.15.06,0,0,0,0-.06,0,0,.08l0,.11.09-.11c.06-.07.08-.14.06-.16m2.22.24c.07-.09.07-.09,0,0s-.11.07-.11.09.07,0,.15,0m-.33,0s0-.06,0-.06,0,0,0,.06.05.09.05,0m6.49,0s-.15,0-.15.07,0,0,.09,0,.08-.06.06-.07m-7.52.11c.06,0,.06,0,0,0a.15.15,0,0,0-.1,0c0,.06,0,.06.11,0m-.34,0s0-.07,0-.09.06-.11,0-.11a.12.12,0,0,1-.09-.07s0-.06-.07,0,0,0,0,0,0-.05-.08-.05a.08.08,0,0,0-.09.07s0,.06,0,.06,0,0,0,0,0,0,0,0,.05,0,.05.09a.38.38,0,0,0,.11.19c.12.11.23.15.15,0m.9,0s.09,0,.1,0-.06-.06-.16-.09-.33-.06-.33,0,0,0,0,0,.07,0,.11,0,.06,0,0,0,0,0,0,.05.07,0,.08,0,.05,0,.09,0m7.52.06s0,0-.06,0-.09,0-.09,0,.11.06.15,0m-2.84-.18s0-.08.06-.08,0,0,0-.07-.12-.07-.19.06-.07.08,0-.08,0-.07-.19-.07-.21,0-.19.06a.07.07,0,0,0,.08,0s.06,0,.05.07,0,.1.07.09.07,0,0,0a.24.24,0,0,0,0,.1c0,.09.25,0,.29-.16M874.9,41c.06,0,.05,0,0,0s-.1,0-.1,0,.05.06.13,0m3.9,0a.08.08,0,0,0-.07,0s0,0,0,0a.08.08,0,0,0,.07,0s0,0,0,0m-3.12-.26s.1-.09.2-.09.06,0,0,.06-.19.09-.19,0m0,.24c.31,0,.79-.13.74-.17s0,0,.09,0,.2,0,0-.14a1.12,1.12,0,0,1-.24-.14c0-.07-.1-.05-.08,0s-.13.31-.18.26,0-.06,0-.09a.12.12,0,0,0,0-.13c0-.08,0-.08-.16,0s-.11,0-.11,0-.08,0-.11.15,0,.12,0,.12a0,0,0,0,1,.05,0s-.17,0-.25,0-.05,0-.05,0,0,0-.06,0-.06-.07-.13,0-.05.08,0,.09,0,0,0,0,0,0,0,.06a.22.22,0,0,0,.21,0Zm-1,0s-.05,0-.1,0-.12,0-.13,0-.19,0-.17,0,.4.13.4.06m7.3,0c0-.06-.06-.06-.06,0a0,0,0,0,0,0,0s0,0,0,0m-7.15,0s0,0-.06,0l-.16,0a.07.07,0,0,0-.06.07c0,.05,0,.05.12,0l.16-.09m7.24.14a.13.13,0,0,0-.07,0s0,0,0,0a.1.1,0,0,0,.07.05s0,0,0-.05m-.41,0c.06,0,.06,0,0,0l-.17,0-.11,0h.11a.31.31,0,0,0,.17,0m-1.43-.1a1.73,1.73,0,0,0,.05-.68s0,0,0,0a.92.92,0,0,1-.08.26,1.29,1.29,0,0,0-.06.59c0,.08.08,0,.13-.21m-.31.14s0,0,0,.05,0,.08,0,0a.17.17,0,0,0,0-.1m1.78.13s0,0-.06,0a.53.53,0,0,1-.2,0,.32.32,0,0,0-.22,0c-.14.07-.08.1.2.09s.28,0,.28-.06m-2.86-.07c-.08-.09-.09,0,0,.13s0,.09.06,0a.17.17,0,0,0-.05-.15m2.11.27c.09-.1.08-.16,0-.1a.18.18,0,0,0-.09.11c0,.07,0,.07.11,0m.62.2s0-.09,0-.09a0,0,0,0,0,0,0s0,0-.07,0a.06.06,0,0,1-.06,0s0,0,.07,0,.06,0,0-.1-.27-.11-.42.06a.44.44,0,0,1-.2.13s0,0,.07.06a1.35,1.35,0,0,0,.38,0c.21,0,.24,0,.26-.11M880,41.9a.55.55,0,0,0,0-.31s0,0,0,0,0,.18,0,.36,0,.32,0,.27a.55.55,0,0,0,.07-.33m-.4,2.69a1.86,1.86,0,0,0-.4,0,1.48,1.48,0,0,1-.41,0s.08-.12.19-.22a.61.61,0,0,0,.24-.72,1,1,0,0,1-.07-.21c0-.07-.1-.22-.35-.54a3.83,3.83,0,0,1-.57-1c-.07-.22-.08-.23-.25-.24s-.17,0-.16-.05a.07.07,0,0,1,.06,0l.09,0H878c.07,0,0-.22,0-.26a3,3,0,0,0-.51-.17c-.07,0-.34.27-.32.32s0,0,0,0,0-.07,0-.14.09-.1.07-.12a0,0,0,0,1,0-.06c.16,0-.07-.09-.27-.06s-.19.05-.19.1,0,.05,0,0-.69,0-1,.18a.72.72,0,0,1-.2.09,2.86,2.86,0,0,0-.67.53.29.29,0,0,1-.32.11,1.19,1.19,0,0,0-.7.22c-.13.09-.22.06-.4-.11s-.11-.07-.14-.06-.06,0-.09-.13-.11-.18-.31,0a.41.41,0,0,1-.47.09c-.08,0-.06,0,.08,0s.18,0,.18-.06,0-.1,0-.11,0,0,0,0,.1,0,.1.07,0,0,.12,0,.26-.13.34,0a.33.33,0,0,0,.13.15.72.72,0,0,1,.19.12l.11.1L874,42a1.26,1.26,0,0,1,.5-.14.49.49,0,0,0,.36-.13,2.72,2.72,0,0,1,.7-.53.81.81,0,0,0,.22-.12,1.34,1.34,0,0,0-.55.07.15.15,0,0,1-.16,0s-.09,0-.19,0-.35.07-.35,0,0,0-.07,0-.06,0-.06,0-.08-.09-.21-.07-.07-.07,0-.1,0,0,0-.05-.05,0-.08,0-.47.07-.46,0,0-.1-.07,0-.09,0-.07-.12-.08-.1-.28,0-.21.08-.23.05-.07,0-.18,0l-.16.05s0-.06,0-.14,0-.26-.14-.23-.06,0,0,0a.57.57,0,0,0,.13-.19c0-.08.06-.11.09-.07s.06,0,.1,0,.06,0,0-.13-.12-.09-.15-.06-.06,0-.07,0-.11-.05-.24-.06-.22,0-.22,0a.69.69,0,0,1-.15.22.74.74,0,0,0-.15.21c0,.09-.16.17-.33.16s-.33,0-.3-.05.08,0,.15,0,.14,0,.16,0,0,0,.06,0,0,0,.1,0a.17.17,0,0,0,.07-.09.72.72,0,0,1,.15-.18c.23-.24.18-.34-.07-.16-.07,0-.14.08-.15.07s-.05,0-.08,0,0,0-.05-.12a1.06,1.06,0,0,0,0-.29c0-.06,0-.09,0-.09a0,0,0,0,1,0,.06.09.09,0,0,0,0,.09s0,0,0,0,.2-.27.23-.23,0,0-.06.08-.12.19,0,.19.28-.24.32-.35,0,0,0,0,0,.09,0,.09,0,0,0,.05-.23.26-.33.26-.08,0,0,.06.1,0,.11,0,.31-.12.76-.13a1.21,1.21,0,0,0,.45-.05s0,0,0,0,.07,0,.1,0a.23.23,0,0,1,.15-.09c.09,0,.11,0,.11-.13s0-.12,0-.12,0,0,0-.07,0-.06,0-.06.17,0,0-.07l-.2-.08a.3.3,0,0,1-.11-.06.27.27,0,0,0-.18,0c-.06,0-.09,0-.08,0s0,0-.07,0-.09,0-.09,0,0,0-.08,0-.3.13-.3.22a.43.43,0,0,1-.09.15.66.66,0,0,0-.1.18c0,.07,0,0,0,0a.18.18,0,0,1,.09-.18.2.2,0,0,0,.08-.14.19.19,0,0,1,.07-.13c.16-.14,0-.19-.23-.06l-.12.07.08-.09.09-.1h-.13a.3.3,0,0,1-.18,0s-.09,0-.22,0-.16,0-.15,0-.12-.17-.29-.17-.17,0-.17-.06-.3-.07-.33,0,0,.06,0,.06,0,0,0,0-.18,0-.25-.05-.05-.11,0-.15,0-.08-.28-.15-.27-.06-.2-.17,0-.06.09,0a.34.34,0,0,0,.38,0c.06,0,.05-.06-.06-.15s-.28-.14-.36-.05,0,0,0,0,0-.09,0-.09l-.13,0c-.06,0-.07,0,0,0s0,.05,0,.05-.06,0-.05-.06-.12-.15-.17-.1,0,0,0,0,.07,0,.1.11.07.11.11.1.18,0,.16.14-.19.11-.37,0a.18.18,0,0,0-.19,0c-.12.08-.28.12-.28.07s.06-.06.37-.16l.17,0-.13,0-.23-.05c-.08,0-.09,0,0-.08a.16.16,0,0,1,.13-.07c.11,0,.1-.07,0-.11a.12.12,0,0,1-.08-.1.12.12,0,0,0-.07-.11c-.11,0-.07-.12.05-.09s.11,0,.15-.09,0-.1.1-.06.07,0,.07,0a.07.07,0,0,0-.06-.07c-.06,0-.14-.2-.1-.24s.06,0,.1.09.22.16.15,0,0-.08,0-.06.08,0,.08,0a.06.06,0,0,1,.06,0c.05,0,.06,0,0,.1s0,.08,0,.07.07-.09.08-.17,0-.14.1-.15.07,0,.07,0a.09.09,0,0,0,.07.08s.06,0,.06,0,.13-.05.13,0,0,0,0,0,0,0,.08,0,.06.07.06,0,0-.07.05-.07,0,0,0,.06,0,.07,0,.05a.16.16,0,0,1,.13,0c.06,0,.08,0,.14,0s.06-.07,0-.12-.11-.06-.11-.08.08-.09.17,0,.08,0,.07-.08,0-.23.13-.2.06,0,.06,0,0-.05-.07-.05-.06,0-.06,0,0,0,.06,0a.1.1,0,0,0,.09,0s.12-.05.23-.05.18,0,.15,0-.14,0-.31,0-.26,0-.26.1a.19.19,0,0,1-.09.13c-.07,0-.09,0-.09,0s0-.06.07-.06.07,0,.05-.09,0-.08.11-.08a.71.71,0,0,0,.22,0c.09-.05.09-.06,0-.09s-.36,0-.38,0,0,0,0,0-.1-.09-.22,0-.08,0-.08,0,0-.06-.08-.06-.06,0,0,0-.09-.19-.15-.19,0,0,0,.06,0,.16-.05.16,0,0,0,0,0,0,0,0a.31.31,0,0,1-.17-.07c-.07-.06-.07-.07,0,0s.17,0,.09-.11-.06-.08,0-.17.08-.11.05-.15a.56.56,0,0,1-.09-.19c0-.11,0-.14,0-.14a.06.06,0,0,1,.06.06.45.45,0,0,0,.11.2c.08.1.13.12.17.09a.34.34,0,0,1,.19,0c.18,0,.17,0,0-.09s-.2-.15-.09-.15a.07.07,0,0,1,.07.06.07.07,0,0,0,.06.07c.14,0,0-.2-.13-.24a.38.38,0,0,1-.18-.09s-.07-.06-.1,0-.1,0-.07-.08,0-.06.09,0,.29.1.29,0,0,0-.06,0a.31.31,0,0,1-.15-.09c-.1-.08-.13-.16,0-.11a.07.07,0,0,0,.09,0s0,0,.08,0,.08.15.08,0a.31.31,0,0,1,.06-.21.24.24,0,0,0,.07-.13c0-.05,0-.05.07,0s.06.08,0,.11,0,.15.1.06.14-.12.14,0a.06.06,0,0,0,.06.06s.07,0,.07,0,0,0,0,0,0,0,0,0a0,0,0,0,1,0,0s0,0,0-.08,0-.17.07-.09.08,0,.12,0,.07-.07.1-.06a.38.38,0,0,0,.14,0,.45.45,0,0,1,.19-.05c.07,0,.1,0,.14-.17s.05-.18,0-.18-.36-.17-.33-.21a.17.17,0,0,1,.1,0q.08,0,.09-.12c0-.08,0-.14.1-.15s.07,0,0-.08,0-.15.11-.15.12,0,.13.09.19.11.19,0,0,0,.06,0,.07,0,.07.12,0,.1,0,0a.11.11,0,0,0,0-.09s0-.05.12-.08.15,0,.22,0,.09.05,0,0a.28.28,0,0,0-.14-.1s-.07,0-.06-.09a.11.11,0,0,0-.06-.12c-.11-.06-.11-.18,0-.33s.11-.12.21-.11.13,0,.13-.07,0-.1.12,0,.11.1.16,0,.19-.14.21-.08,0,0,.09,0,.09,0,.1,0,.05,0,.08,0,.08-.07.18,0a.29.29,0,0,0,.24,0c.09,0,.13,0,.16,0s0,0,.07,0a.28.28,0,0,1,.16-.09.33.33,0,0,0,.2-.08.27.27,0,0,1,.35.05c.08.07.12,0,0-.06s.11-.27.21-.24.09,0,.09,0,0-.05,0-.05a.83.83,0,0,1-.21-.1c-.15-.1-.15-.11,0-.09s.15,0,0-.16-.17-.25.08-.22.22,0,.22-.07a.08.08,0,0,1,.07-.09.32.32,0,0,1,.24.28c0,.07,0,.11.07.11s.05,0,0,.06,0,.07,0,.07.09-.17,0-.32,0-.17,0-.21,0-.08,0-.14-.11-.11-.11-.14,0-.07.14,0,.08.06.08,0,0,0,0,0,0,0,.06,0,0,0,.08,0a.26.26,0,0,0,.16.07c.07,0,.08,0,.06-.1s0-.11.07-.14.12-.11,0-.11,0,0,0,0a.24.24,0,0,1,.13,0c.08,0,.12,0,.14,0s0,0,0,0,.09.06.07,0l0-.1.09.1a.48.48,0,0,1,.1.15c0,.13.07,0,0-.2s0-.32.06-.12.12.18.12.05.06-.1.14.07.1.15.14.15.07,0,0-.06-.07-.07,0-.13a.13.13,0,0,1,.15-.05c.07,0,.08,0,0,0a.09.09,0,0,1,0-.12q0-.07.06,0a.23.23,0,0,0,.14.07c.09,0,.1,0,.09.12s0,.11.08.11.09,0,.09-.05a.31.31,0,0,1,.09-.15c.07-.07.1-.08.15,0s.05.07,0,.11,0,.08,0,.15.11.07.11-.07,0-.1.07-.1.06,0,.06.08a.22.22,0,0,0,.06.13s.07,0,.11-.08.06-.13.08-.13a.32.32,0,0,1,.25.12c0,.05,0,.05,0,0s-.14,0,0,.09.16.11.11,0,.06-.17.15-.14.09,0,.09,0,0,0,.07,0,.08,0,.07.14l0,.12.09-.12c.09-.11.26-.16.26-.07s0,0,.09,0a.18.18,0,0,1,.11,0s.05,0,.1,0a.39.39,0,0,1,.43.05.33.33,0,0,1,.09.13s0,0,.08,0a.12.12,0,0,0,.06-.13c0-.12.07-.09.12,0s.06.11.15.09.11,0,.11,0,0,.07.08,0,.23-.11.14,0a.16.16,0,0,0,0,.11s0,0,.09-.05.12-.12.15-.12.12.16,0,.26a.11.11,0,0,0,0,.12s0,0,0,0,.1-.07.1,0,.12.11.19,0,.06-.09,0,0,.09.24.15.13,0,0,0,0,0,.1,0,.1,0,0,0,.06,0,.07,0,.07.05,0,.05-.09,0-.09,0-.09.1.18,0,.24,0,.07,0,.07a.2.2,0,0,1,.11.07c.06.06.06.07,0,.15s-.12.15,0,.06a.3.3,0,0,1,.25,0c.13,0,.14,0,.09.09s-.08.14,0,.17.06.05.06.07,0,0-.06,0-.07,0-.07,0,0,0,.07,0,.21.17.25.26,0,0,.09,0a.09.09,0,0,0,0-.12.29.29,0,0,1,0-.16.89.89,0,0,0,.06-.21c0-.17,0-.18-.17-.05s-.27,0-.15-.18,0-.05.09,0,0,.07.11,0,.15-.09.18,0,.07.11.11,0,0,0,0,.09,0,.18.29,0,.2-.18.18-.22,0-.06,0-.06.09.15.06.24a.1.1,0,0,1-.09.07.37.37,0,0,0-.15.08.31.31,0,0,1-.17.09s-.08,0-.08,0a.06.06,0,0,1-.06,0,.07.07,0,0,1-.07-.07.06.06,0,0,0,0-.06s0,0,0,.07a.17.17,0,0,1,0,.15c-.05.1-.05.1.23,0s.55-.33.55-.44,0,0,.07,0a.14.14,0,0,1,0,.15c0,.08,0,.08,0,0a.18.18,0,0,1,.13,0s0,.07-.16.13-.22.13-.23.22-.09.15-.09,0,0-.1-.07-.06a1,1,0,0,1-.27.13c-.18.07-.2.09-.19.19s0,.12,0,.12-.07,0-.07,0a0,0,0,0,0,0,0s.05,0,.05.09,0,.08.1,0,.11-.08.11-.11a0,0,0,0,1,.06,0,.07.07,0,0,0,.06-.12s0,0,0,0a.17.17,0,0,1,.11.07c.05.06.06.06.15,0a.42.42,0,0,1,.13-.07s-.17.16-.32.22-.13.09-.13.13a0,0,0,0,1,0,.06.15.15,0,0,0-.08,0s0,0,0,0,.25-.08.19-.09.12-.09.43-.21a2.32,2.32,0,0,0,.3-.14c.06,0,.11,0,.11,0s-.16.13-.47.25c-.09,0-.15.08-.14.1s0,0,0,0,0,0,0,.06a.19.19,0,0,1,0,.12s0,.06,0,.11.09.09.15,0,.06-.08.08,0,.17.13.2,0,.05,0,.1,0,.08,0,0,.1-.07.09,0,.12a.13.13,0,0,1,0,.11c-.05.06-.05.08,0,.09a.11.11,0,0,1,0,.08s0,0,.06,0a.1.1,0,0,0,.07-.1s0-.07.11,0a.22.22,0,0,1,.13.06.08.08,0,0,0,.06,0s0-.4-.05-.46,0-.12,0-.06a.18.18,0,0,1,.06.13c0,.13,0,.21.12.18s.06,0,0,0,0,.06,0,0,.05,0,.06.05,0,0,.11-.09.09-.17,0-.22a.17.17,0,0,0-.11-.07.1.1,0,0,1-.09-.07.07.07,0,0,0-.08,0s-.06,0-.07-.07,0-.1-.07-.09-.05,0-.05-.05a.07.07,0,0,1,.06-.07s.07,0,.07.05.08.14.18.18.07,0,.07.07,0,0,.06.06.06,0,0-.09,0-.12-.06-.13-.06-.1,0-.1a.06.06,0,0,1,.06.05s.05,0,.13,0,.13,0,.13.05,0,.07,0,0,0-.09,0-.15-.07-.08,0-.06a.25.25,0,0,0,.16,0c.11-.08.31,0,.31.05s.07.08.16-.05.09-.09.09-.07,0,0,.08,0,.07,0,.07.14.08.25.1.1a.11.11,0,0,1,.1-.1c.06,0,.07,0,.06.07s0,.06,0,.06.06,0,.07-.08.14-.1.24.09.09.15.1.12,0,0,.08,0,0,0,0,.09-.07.08,0,.1-.15.14-.26.14-.06,0-.06,0,0,0-.08,0a.17.17,0,0,0-.16,0c-.08.06-.07.06.05,0l.31,0a.25.25,0,0,0,.25-.11c.08-.12.16-.13.13,0s.08.13.12,0,0,0,.07,0-.14.13-.54.17-.58.11-.58.23a.18.18,0,0,0,0,.11s0,.08,0,.15,0,.16.09.08.06,0,.06,0,0,.08-.11.08-.11,0-.11,0a0,0,0,0,0,0,0,0,0,0,0,1,0,.06s0,.07,0,.08,0,.17-.1.17-.09,0-.09,0,.05,0,.11,0,.13-.07.17-.16.07-.14.22-.13l.25,0a.22.22,0,0,1,.16.1l.07.09,0-.1s.06-.09.1-.09,0,0,0,0,0,0,.13-.05.1-.08.1,0a.22.22,0,0,1-.06.13.15.15,0,0,0-.07.11.06.06,0,0,1,0,.06.71.71,0,0,0-.35.09.29.29,0,0,1-.14,0c-.06,0-.1,0-.1,0s0,0,.08,0,.08,0,.07,0,.15,0,.25-.07.07-.08.06,0,0,.08,0,.08,0,0-.1.1a.58.58,0,0,1-.2.11c-.05,0-.07.06-.06.14s0,0-.06,0-.06,0-.05,0a.06.06,0,0,0,.07,0,.09.09,0,0,1,.08.06c0,.06,0,0,.13,0l.1-.13,0,.22c0,.21,0,.21,0,.12a.2.2,0,0,1,.13-.1s.06,0,.06,0,0,0-.06,0-.07,0-.07,0,0,0,.07,0,.06,0,.06,0a.06.06,0,0,0,.06,0c.08,0,.09.06,0,.1s0,.06,0,.11,0,.09-.11.13a.51.51,0,0,0-.18.12c0,.05,0,.05.07,0a.28.28,0,0,1,.14,0s0,0,0,0,0,0,0,.14,0,.13-.07.15-.08,0,0,.06a.21.21,0,0,0,.16,0c.07,0,.09,0,.07.07s0,.09-.09.09-.07.07,0,.1,0,0,0,0a.06.06,0,0,0-.06.08c0,.08.09.08.18,0s0-.07,0-.12,0-.09,0-.13.06,0,.09.06,0,.1.1.07.13-.06.12.11,0,.16.06.17.08,0,.08,0,0,0,.09,0,.08,0,.08.07a.22.22,0,0,0,0,.13s0,.07,0,.13-.08.07,0,0,0-.09-.15-.09-.2,0-.21.07-.07,0-.13,0-.09,0-.09,0a.05.05,0,0,1,0,.05s0,0,0-.08,0-.06,0,0,0,.06,0,.11a.09.09,0,0,0,.09,0,.2.2,0,0,1,.28,0c0,.06,0,.08,0,0s.17-.21.17-.14a.08.08,0,0,1,0,.07.07.07,0,0,0,0,.07s.27-.11.36-.24.07-.06.11,0,0,0,0,.07a.78.78,0,0,0-.2.13l-.14.1.13,0,.22,0c.06,0,.1,0,.1,0s-.1.06-.25.05-.05,0-.05.08a.07.07,0,0,1-.07.08.06.06,0,0,0-.06.05s-.08.07-.18.11l-.18.08.13,0c.18,0,.22.23.06.29l-.11,0h.13a.54.54,0,0,1,.2,0c.07,0,.07,0,0,.12a.2.2,0,0,1-.16.1c-.08,0-.08,0,0,0s0-.06-.11,0-.11.06-.08.07a3,3,0,0,1-.66.21,2.37,2.37,0,0,0-.69.12s.07,0,.06.05.21,0,.28,0,.09-.05.11,0,0,.07-.07.12a.4.4,0,0,1-.37,0c-.09,0-.15,0-.12.05s0,0-.09,0l-.31-.06c-.1,0-.19,0-.19-.06s.07,0,.16,0,.17,0,0-.07-.15,0-.21,0a.27.27,0,0,1-.13.08,1.15,1.15,0,0,0-.4.42.05.05,0,0,1-.06,0,.73.73,0,0,0-.28.11,1.75,1.75,0,0,1-.4.14c-.09,0-.17,0-.17.07s0,0,.05,0,0,0,0,0,.29.09.32.05a.2.2,0,0,1,.1,0c.11,0,.09.06,0,.1s-.09,0,.05.09.33.07.36,0a.16.16,0,0,1,.16-.12c.15,0,.15.05,0,.12s-.14.1,0,.08l.27,0a.27.27,0,0,0,.15,0,.64.64,0,0,1,.34-.16.12.12,0,0,0,.11-.06s0,0,0,0,0,.09,0,.09,0,0,0-.06.06-.09.1,0,.07,0,.15,0l.32-.1c.17,0,.19,0,.15,0s-.1.06-.18.06-.11,0-.08,0,.05,0,0,.06-.08,0-.09,0-.16.06-.16.14,0,.06.22,0a.47.47,0,0,1,.23,0,.29.29,0,0,0,.3,0c.06,0,.07,0,.07,0a.12.12,0,0,1-.09.11s-.08,0-.08.07.14,0,.2,0,.06-.06,0,.07,0,.15-.12.18-.39.08-.39,0-.13,0-.28,0-.07,0,0,0-.45-.14-.54-.1a.2.2,0,0,1-.17,0,.3.3,0,0,0-.23,0c-.17.06-.18.07-.08.19s.08.09,0,0a.65.65,0,0,0-.31-.07.53.53,0,0,1-.32-.07c-.15-.1-.3-.12-.33,0a.07.07,0,0,1-.1,0c-.05,0-.06,0-.05,0s.05.06.07.05,0,0,0,.06,0,.05.07,0,0,.08-.08.18a.29.29,0,0,1-.17.06s0,0,0-.06.12-.12,0-.2-.12-.07,0-.11,0,0-.08,0-.16,0-.17-.06,0-.06,0,0,.05.12.13.2.2.22.08.17a.37.37,0,0,0-.14,0c-.24,0-.27-.08-.24-.22s0-.15-.15-.19a.55.55,0,0,1-.19-.09s-.38.08-.6.23a1.08,1.08,0,0,1-.2.12s0,0,0,.06,0,.07,0,.07a.06.06,0,0,1-.06,0s-.09,0-.21,0l-.19.07.17,0c.12,0,.15,0,.11,0a.81.81,0,0,1-.27,0c-.22,0-.32.08-.13.1s.11,0,.11.08.15.13.37.08.3-.05.3,0,0,0,0,0-.27.06-.27.1.11,0,.17,0,.05,0,0,0,0,.07,0,0a.09.09,0,0,1,.09,0s0,0,0-.06a.19.19,0,0,1,0-.12s0,0,0,.06.11.12.24,0a.35.35,0,0,1,.26,0l.17,0-.16,0a.37.37,0,0,1-.19.05c-.08,0-.14,0-.14,0s0,0,.06,0a.09.09,0,0,1,.09,0s.06,0,.11,0,.08,0,.06,0-.11.05-.22.05-.32,0-.32.12,0,.06-.08,0a.22.22,0,0,0-.21-.05c-.08,0-.1,0-.06,0s.05-.06,0-.08a.11.11,0,0,0-.09,0s-.07,0-.08,0,0,0,0,.05,0,.08-.23.07-.22,0-.21.06.82.18.91,0,0,0,0,0a.07.07,0,0,0,.08.08c.12,0,.16-.09,0-.12s-.09,0-.09-.06.12,0,.17,0a.23.23,0,0,0,.18,0c.08,0,.13,0,.13,0s0,0-.11,0-.11,0-.1.08,0,.07-.15.06-.16,0-.16,0a0,0,0,0,1,0,0,.06.06,0,0,1-.05-.06c0-.05,0-.06-.12,0a.29.29,0,0,1-.24,0,.64.64,0,0,0-.28-.06.25.25,0,0,1-.24-.1c0-.08-.1-.09-.29-.09a.76.76,0,0,0-.26.05s0,.12.06.22.1.17.15.13.06,0,.06,0,0,0,0,0a.54.54,0,0,1,.26-.07l.24,0-.15.07a.76.76,0,0,1-.21.06.25.25,0,0,0-.12,0,.74.74,0,0,1-.34.07,4.07,4.07,0,0,1-.7,0c-.19,0-.21,0-.25.44,0,.18,0,.46-.06.63a1.08,1.08,0,0,0,.06.59,2.14,2.14,0,0,0,.26.5.89.89,0,0,1,.15.33v.11h-.73a4,4,0,0,1-.76,0"/><path class="cls-6" d="M888.45,46.48a1.31,1.31,0,0,0,.18-.2c.09-.23.18-.47.26-.71a21.81,21.81,0,0,0,.51-11.8,17.25,17.25,0,0,0-2.74-6.27,11,11,0,0,0-3.57-3.36A7.91,7.91,0,0,0,875,24a10.9,10.9,0,0,0-3.52,3.1,16.85,16.85,0,0,0-2.78,5.67,21.88,21.88,0,0,0-.59,9.28,19.93,19.93,0,0,0,1.06,4.17c.17.44.22.46.72.34,2.29-.56,4.57-1.13,6.86-1.68a12.38,12.38,0,0,1,6.45.16l1,.3,4.2,1.14m8.06,15.2-.72.67-4.34,3.86c-.42.37-.43.37-.88,0L883,60.14l-.16-.13a1.79,1.79,0,0,0-1.75-.5,17.43,17.43,0,0,1-8.64-1A16.29,16.29,0,0,1,863.38,50a23.3,23.3,0,0,1-2.18-8.29,43.32,43.32,0,0,1,0-7.64,22.05,22.05,0,0,1,3.21-9.95,15.92,15.92,0,0,1,11.07-7.42,18.51,18.51,0,0,1,8.9.5,16,16,0,0,1,9.36,7.58,21.75,21.75,0,0,1,2.61,7.71,40.33,40.33,0,0,1,.16,10A21.21,21.21,0,0,1,893.36,52a17.18,17.18,0,0,1-3.3,3.81c-.45.38-.45.41,0,.79L895,60.48l1.52,1.2"/><path class="cls-6" d="M962.47,32.63h0V36.5c0,.5.09.6.54.61l4.81,0a4.89,4.89,0,0,0,.85-.08,3.92,3.92,0,0,0,3.43-3.8,8.22,8.22,0,0,0,0-1.4,3.75,3.75,0,0,0-3.1-3.38,9.71,9.71,0,0,0-1.7-.18c-1.28,0-2.56,0-3.85,0-.21,0-.42,0-.64,0a.29.29,0,0,0-.27.28c0,.22,0,.43,0,.64v3.45M973,40.55c.23.47.41.85.61,1.23l5.17,9.81c.11.22.22.45.35.66.31.55.08.67-.36.67-1.78,0-3.57,0-5.36,0a.9.9,0,0,1-.91-.57c-.86-1.74-1.75-3.46-2.63-5.18l-2.1-4.13c-.11-.22-.22-.45-.34-.67a.58.58,0,0,0-.53-.31h-4c-.33,0-.45.13-.47.45s0,.58,0,.87v8.3c0,.29,0,.58,0,.86a.33.33,0,0,1-.33.35h-.21c-1.65,0-3.29,0-4.93,0-.5,0-.56-.07-.58-.55,0-.22,0-.43,0-.65V24.54c0-.29,0-.58,0-.87a.37.37,0,0,1,.41-.38h.54c3.39,0,6.79,0,10.18,0a16,16,0,0,1,4.34.57,10.09,10.09,0,0,1,2.82,1.27A7.5,7.5,0,0,1,978,29.89a11,11,0,0,1,0,4.92,7.67,7.67,0,0,1-3.62,5c-.39.25-.8.47-1.3.75"/><path class="cls-6" d="M990.32,32.67h0c0,1.3,0,2.59,0,3.88,0,.47.09.55.57.56,1.54,0,3.07,0,4.6,0a6.12,6.12,0,0,0,1-.08,3.91,3.91,0,0,0,3.39-3,5.65,5.65,0,0,0-.05-2.77,3.68,3.68,0,0,0-2.93-2.8,5.87,5.87,0,0,0-1.38-.18c-1.53,0-3.06,0-4.6,0-.48,0-.56.08-.56.56,0,1.29,0,2.58,0,3.87m10.54,7.89c.21.42.37.74.54,1.06l5.31,10.09c.15.29.29.58.41.87s0,.28-.2.31a3.09,3.09,0,0,1-.53,0c-1.64,0-3.29,0-4.93,0a1.08,1.08,0,0,1-1.16-.7c-1.11-2.25-2.27-4.48-3.41-6.72l-1.51-3a.77.77,0,0,0-.76-.48c-1.25,0-2.5,0-3.75,0-.47,0-.54.09-.54.59,0,1,0,2,0,3,0,2.2,0,4.39,0,6.58,0,.61,0,.64-.58.64-1.65,0-3.29,0-4.93,0-.48,0-.53-.07-.55-.58V24.51c0-1.33-.14-1.22,1.2-1.22h9.65a16.73,16.73,0,0,1,4.66.58,9.87,9.87,0,0,1,2.54,1.1,7.59,7.59,0,0,1,3.56,5.16,11.24,11.24,0,0,1,0,4.4,7.75,7.75,0,0,1-3.81,5.34l-1.18.69"/><path class="cls-6" d="M1027.47,43.57H1030a.39.39,0,0,1,.44.36c0,.25,0,.5.09.75a3.83,3.83,0,0,0,2.41,3.19,8.06,8.06,0,0,0,5.56.26,3.12,3.12,0,0,0,2.14-4.17,3,3,0,0,0-1.21-1.59,9.23,9.23,0,0,0-2-1c-1-.37-1.94-.72-2.92-1.05a30.67,30.67,0,0,1-3.77-1.53,12.21,12.21,0,0,1-2.93-2,7.45,7.45,0,0,1,0-11.2,9.31,9.31,0,0,1,3.33-1.9,15.25,15.25,0,0,1,9-.28,9.75,9.75,0,0,1,3.78,1.95,8.25,8.25,0,0,1,3,6.18c0,.42-.05.5-.48.5q-2.52,0-5,0c-.47,0-.47,0-.54-.45,0-.28-.09-.57-.16-.85a3.4,3.4,0,0,0-2-2.46,6.51,6.51,0,0,0-5.41,0,2.94,2.94,0,0,0-1.86,2.67,2.65,2.65,0,0,0,.85,2.13,6.39,6.39,0,0,0,1.33.91,18.09,18.09,0,0,0,3.17,1.27,31.16,31.16,0,0,1,4.11,1.53,13.87,13.87,0,0,1,3.52,2.25,7.47,7.47,0,0,1,2.39,4.11,8.86,8.86,0,0,1-.15,4.37,6.68,6.68,0,0,1-2.1,3.19,9,9,0,0,1-3.57,1.91,16.29,16.29,0,0,1-10.21-.36,10.92,10.92,0,0,1-3-1.66,8.66,8.66,0,0,1-3.34-6.16c0-.07,0-.14,0-.21,0-.63,0-.7.62-.71h2.46Z"/><path class="cls-6" d="M949.31,35.38a27.27,27.27,0,0,1,0,4.61,2.9,2.9,0,0,1-1.06.07H938.6c-.82,0-.82,0-.83.83v6.26c0,.18,0,.36,0,.53a.28.28,0,0,0,.27.28l1,0h11.35c1.13,0,1.06,0,1.06,1s0,2.23,0,3.34c0,.44-.09.51-.49.53h-18l-.86,0a.33.33,0,0,1-.35-.33c0-.25,0-.5,0-.75V23.89c0-.55.06-.59.63-.6h18.32c.7,0,.72,0,.72.74q0,1.83,0,3.66c0,.49-.06.53-.57.55-.25,0-.5,0-.75,0H938.6c-.81,0-.82,0-.83.85v5.39c0,.14,0,.29,0,.43s.17.37.42.37h10.07a2.16,2.16,0,0,1,1,.09"/><path class="cls-6" d="M920.24,43h5.53c.45,0,.5.06.46.51a10,10,0,0,1-5.73,8.51,12,12,0,0,1-4.32,1.15A16,16,0,0,1,911.7,53a10.57,10.57,0,0,1-7.45-5.45,13.46,13.46,0,0,1-1.63-4.76,31.79,31.79,0,0,1,0-9.24,13.7,13.7,0,0,1,2-5.42A10.81,10.81,0,0,1,913,23a14.16,14.16,0,0,1,5.83.51,10.16,10.16,0,0,1,7.08,7.57c.15.58.23,1.19.33,1.79.06.44,0,.49-.46.5h-5c-.5,0-.53,0-.59-.56a7.39,7.39,0,0,0-.52-2.08,4,4,0,0,0-2.47-2.38,7.78,7.78,0,0,0-4.22-.24,4.79,4.79,0,0,0-3.34,2.63,10.08,10.08,0,0,0-1,3.72,39.14,39.14,0,0,0,0,7.42,10.74,10.74,0,0,0,.78,3.24,4.82,4.82,0,0,0,4.45,3.16,8.7,8.7,0,0,0,2.87-.23,4.25,4.25,0,0,0,3.08-2.87,12.14,12.14,0,0,0,.45-2.12"/><path class="cls-6" d="M1012.5,38.07V24.6c0-.33,0-.65,0-1a.3.3,0,0,1,.33-.33h5.25c.36,0,.45.1.46.45s0,.5,0,.75V52.3c0,.57-.05.61-.63.61-1.64,0-3.29,0-4.93,0-.42,0-.49-.08-.51-.5s0-.58,0-.87V38.07"/></g></g></g></svg>