<svg xmlns="http://www.w3.org/2000/svg" viewBox="0 0 29.29 44"><defs><style>.cls-1{fill:#d3d4d5;}.cls-2{fill:#868686;}.cls-3{fill:#383838;}.cls-4{fill:#161616;}.cls-5{fill:#c6c7c8;}.cls-6{fill:#0b0b0b;}.cls-7{fill:#222;}.cls-8{fill:#fff;}.cls-9{fill:#5a5a5a;}.cls-10{fill:#e3e3e3;}.cls-11{fill:#fafafa;}.cls-12{fill:#919292;}.cls-13{fill:#abacad;}.cls-14{fill:#707070;}.cls-15{fill:#5e5e5e;}.cls-16{fill:#b3b3b3;}.cls-17{fill:#4f5050;}.cls-18{fill:#282828;}.cls-19{fill:#5b5b5b;}.cls-20{fill:#f6f6f6;}.cls-21{fill:#e7e7e7;}.cls-22{fill:#b8b8b8;}.cls-23{fill:#717171;}.cls-24{fill:#ececec;}.cls-25{fill:#3d3d3d;}.cls-26{fill:gray;}.cls-27{fill:#656565;}.cls-28{fill:#2d2d2d;}.cls-29{fill:#f1f1f1;}.cls-30{fill:#dfdfdf;}.cls-31{fill:#101010;}.cls-32{fill:#cbcbcb;}.cls-33{fill:#9f9f9f;}.cls-34{fill:#969696;}.cls-35{fill:#1b1b1b;}.cls-36{fill:#919191;}.cls-37{fill:#434343;}.cls-38{fill:#d9d9d9;}.cls-39{fill:#606060;}.cls-40{fill:#9d9d9d;}.cls-41{fill:#b1b1b1;}.cls-42{fill:#a0a0a0;}.cls-43{fill:#4e4e4e;}.cls-44{fill:#d4d4d4;}.cls-45{fill:#a8a8a8;}.cls-46{fill:#858585;}.cls-47{fill:#afafaf;}.cls-48{fill:#a3a3a3;}.cls-49{fill:#505050;}.cls-50{fill:#f4f4f5;}.cls-51{fill:#dedede;}.cls-52{fill:#848585;}.cls-53{fill:#1a1b1b;}.cls-54{fill:#c1c1c1;}.cls-55{fill:#c6c6c6;}.cls-56{fill:#bfbfbf;}.cls-57{fill:#a4a4a4;}.cls-58{fill:#7b7b7b;}.cls-59{fill:#c9c9c9;}.cls-60{fill:#cacaca;}.cls-61{fill:#cfcfcf;}.cls-62{fill:#0d0d0d;}.cls-63{fill:#262626;}.cls-64{fill:#8f8f8f;}.cls-65{fill:#e9eaea;}.cls-66{fill:#202020;}.cls-67{fill:#8f8f90;}.cls-68{fill:#404040;}.cls-69{fill:#efefef;}.cls-70{fill:#bdbdbd;}.cls-71{fill:#d0d0d0;}</style></defs><g id="Layer_2" data-name="Layer 2"><g id="Layer_1-2" data-name="Layer 1"><rect class="cls-1" x="19.11" y="42.84" width="1.27" height="1.16"/><rect x="17.83" y="42.84" width="1.27" height="1.16"/><rect class="cls-2" x="16.56" y="42.84" width="1.27" height="1.16"/><rect x="15.28" y="42.84" width="1.27" height="1.16"/><rect x="14.01" y="42.84" width="1.27" height="1.16"/><rect x="12.74" y="42.84" width="1.27" height="1.16"/><rect class="cls-3" x="11.46" y="42.84" width="1.27" height="1.16"/><rect class="cls-4" x="10.19" y="42.84" width="1.27" height="1.16"/><rect class="cls-5" x="8.92" y="42.84" width="1.27" height="1.16"/><rect class="cls-1" x="20.38" y="41.68" width="1.27" height="1.16"/><rect x="19.11" y="41.68" width="1.27" height="1.16"/><rect class="cls-6" x="17.83" y="41.68" width="1.27" height="1.16"/><rect class="cls-7" x="16.56" y="41.68" width="1.27" height="1.16"/><rect class="cls-8" x="15.28" y="41.68" width="1.27" height="1.16"/><rect class="cls-9" x="14.01" y="41.68" width="1.27" height="1.16"/><rect class="cls-10" x="12.74" y="41.68" width="1.27" height="1.16"/><rect class="cls-11" x="11.46" y="41.68" width="1.27" height="1.16"/><rect x="10.19" y="41.68" width="1.27" height="1.16"/><rect class="cls-7" x="8.92" y="41.68" width="1.27" height="1.16"/><rect class="cls-12" x="7.64" y="41.68" width="1.27" height="1.16"/><rect class="cls-13" x="21.65" y="40.53" width="1.27" height="1.16"/><rect x="20.38" y="40.53" width="1.27" height="1.16"/><rect x="19.11" y="40.53" width="1.27" height="1.16"/><rect class="cls-9" x="17.83" y="40.53" width="1.27" height="1.16"/><rect class="cls-8" x="16.56" y="40.53" width="1.27" height="1.16"/><rect class="cls-8" x="15.28" y="40.53" width="1.27" height="1.16"/><rect class="cls-8" x="14.01" y="40.53" width="1.27" height="1.16"/><rect class="cls-8" x="12.74" y="40.53" width="1.27" height="1.16"/><rect class="cls-8" x="11.46" y="40.53" width="1.27" height="1.16"/><rect class="cls-8" x="10.19" y="40.53" width="1.27" height="1.16"/><rect x="8.92" y="40.53" width="1.27" height="1.16"/><rect class="cls-14" x="7.64" y="40.53" width="1.27" height="1.16"/><rect x="6.37" y="40.53" width="1.27" height="1.16"/><rect class="cls-1" x="22.93" y="39.37" width="1.27" height="1.16"/><rect x="21.65" y="39.37" width="1.27" height="1.16"/><rect class="cls-15" x="20.38" y="39.37" width="1.27" height="1.16"/><rect class="cls-8" x="19.11" y="39.37" width="1.27" height="1.16"/><rect class="cls-8" x="17.83" y="39.37" width="1.27" height="1.16"/><rect class="cls-8" x="16.56" y="39.37" width="1.27" height="1.16"/><rect class="cls-8" x="15.28" y="39.37" width="1.27" height="1.16"/><rect class="cls-8" x="14.01" y="39.37" width="1.27" height="1.16"/><rect class="cls-8" x="12.74" y="39.37" width="1.27" height="1.16"/><rect class="cls-8" x="11.46" y="39.37" width="1.27" height="1.16"/><rect class="cls-8" x="10.19" y="39.37" width="1.27" height="1.16"/><rect class="cls-8" x="8.92" y="39.37" width="1.27" height="1.16"/><rect class="cls-8" x="7.64" y="39.37" width="1.27" height="1.16"/><rect class="cls-16" x="6.37" y="39.37" width="1.27" height="1.16"/><rect class="cls-17" x="5.09" y="39.37" width="1.27" height="1.16"/><rect class="cls-18" x="22.93" y="38.21" width="1.27" height="1.16"/><rect class="cls-16" x="21.65" y="38.21" width="1.27" height="1.16"/><rect class="cls-8" x="20.38" y="38.21" width="1.27" height="1.16"/><rect class="cls-8" x="19.11" y="38.21" width="1.27" height="1.16"/><rect class="cls-8" x="17.83" y="38.21" width="1.27" height="1.16"/><rect class="cls-8" x="16.56" y="38.21" width="1.27" height="1.16"/><rect class="cls-8" x="15.28" y="38.21" width="1.27" height="1.16"/><rect class="cls-4" x="14.01" y="38.21" width="1.27" height="1.16"/><rect class="cls-8" x="12.74" y="38.21" width="1.27" height="1.16"/><rect class="cls-2" x="11.46" y="38.21" width="1.27" height="1.16"/><rect class="cls-19" x="10.19" y="38.21" width="1.27" height="1.16"/><rect class="cls-8" x="8.92" y="38.21" width="1.27" height="1.16"/><rect class="cls-8" x="7.64" y="38.21" width="1.27" height="1.16"/><rect class="cls-20" x="6.37" y="38.21" width="1.27" height="1.16"/><rect x="5.09" y="38.21" width="1.27" height="1.16"/><rect class="cls-1" x="24.2" y="37.05" width="1.27" height="1.16"/><rect class="cls-3" x="22.93" y="37.05" width="1.27" height="1.16"/><rect class="cls-21" x="21.65" y="37.05" width="1.27" height="1.16"/><rect class="cls-22" x="20.38" y="37.05" width="1.27" height="1.16"/><rect class="cls-23" x="19.11" y="37.05" width="1.27" height="1.16"/><rect class="cls-8" x="17.83" y="37.05" width="1.27" height="1.16"/><rect class="cls-24" x="16.56" y="37.05" width="1.27" height="1.16"/><rect class="cls-6" x="15.28" y="37.05" width="1.27" height="1.16"/><rect x="14.01" y="37.05" width="1.27" height="1.16"/><rect class="cls-25" x="12.74" y="37.05" width="1.27" height="1.16"/><rect class="cls-26" x="11.46" y="37.05" width="1.27" height="1.16"/><rect class="cls-6" x="10.19" y="37.05" width="1.27" height="1.16"/><rect class="cls-27" x="8.92" y="37.05" width="1.27" height="1.16"/><rect class="cls-8" x="7.64" y="37.05" width="1.27" height="1.16"/><rect class="cls-8" x="6.37" y="37.05" width="1.27" height="1.16"/><rect class="cls-9" x="5.09" y="37.05" width="1.27" height="1.16"/><rect x="3.82" y="37.05" width="1.27" height="1.16"/><rect x="24.2" y="35.89" width="1.27" height="1.16"/><rect class="cls-2" x="22.93" y="35.89" width="1.27" height="1.16"/><rect class="cls-8" x="21.65" y="35.89" width="1.27" height="1.16"/><rect class="cls-28" x="20.38" y="35.89" width="1.27" height="1.16"/><rect x="19.11" y="35.89" width="1.27" height="1.16"/><rect class="cls-4" x="17.83" y="35.89" width="1.27" height="1.16"/><rect x="16.56" y="35.89" width="1.27" height="1.16"/><rect x="15.28" y="35.89" width="1.27" height="1.16"/><rect class="cls-9" x="14.01" y="35.89" width="1.27" height="1.16"/><rect class="cls-8" x="12.74" y="35.89" width="1.27" height="1.16"/><rect class="cls-10" x="11.46" y="35.89" width="1.27" height="1.16"/><rect class="cls-29" x="10.19" y="35.89" width="1.27" height="1.16"/><rect x="8.92" y="35.89" width="1.27" height="1.16"/><rect class="cls-30" x="7.64" y="35.89" width="1.27" height="1.16"/><rect class="cls-8" x="6.37" y="35.89" width="1.27" height="1.16"/><rect class="cls-9" x="5.09" y="35.89" width="1.27" height="1.16"/><rect class="cls-9" x="3.82" y="35.89" width="1.27" height="1.16"/><rect class="cls-31" x="24.2" y="34.74" width="1.27" height="1.16"/><rect class="cls-10" x="22.93" y="34.74" width="1.27" height="1.16"/><rect class="cls-32" x="21.65" y="34.74" width="1.27" height="1.16"/><rect class="cls-28" x="20.38" y="34.74" width="1.27" height="1.16"/><rect class="cls-2" x="19.11" y="34.74" width="1.27" height="1.16"/><rect class="cls-4" x="17.83" y="34.74" width="1.27" height="1.16"/><rect x="16.56" y="34.74" width="1.27" height="1.16"/><rect x="15.28" y="34.74" width="1.27" height="1.16"/><rect class="cls-2" x="14.01" y="34.74" width="1.27" height="1.16"/><rect class="cls-8" x="12.74" y="34.74" width="1.27" height="1.16"/><rect class="cls-16" x="11.46" y="34.74" width="1.27" height="1.16"/><rect class="cls-9" x="10.19" y="34.74" width="1.27" height="1.16"/><rect class="cls-33" x="8.92" y="34.74" width="1.27" height="1.16"/><rect class="cls-4" x="7.64" y="34.74" width="1.27" height="1.16"/><rect x="6.37" y="34.74" width="1.27" height="1.16"/><rect class="cls-20" x="5.09" y="34.74" width="1.27" height="1.16"/><rect class="cls-9" x="3.82" y="34.74" width="1.27" height="1.16"/><rect x="25.47" y="33.58" width="1.27" height="1.16"/><rect class="cls-1" x="24.2" y="33.58" width="1.27" height="1.16"/><rect class="cls-8" x="22.93" y="33.58" width="1.27" height="1.16"/><rect x="21.65" y="33.58" width="1.27" height="1.16"/><rect x="20.38" y="33.58" width="1.27" height="1.16"/><rect class="cls-24" x="19.11" y="33.58" width="1.27" height="1.16"/><rect class="cls-3" x="17.83" y="33.58" width="1.27" height="1.16"/><rect x="16.56" y="33.58" width="1.27" height="1.16"/><rect x="15.28" y="33.58" width="1.27" height="1.16"/><rect x="14.01" y="33.58" width="1.27" height="1.16"/><rect class="cls-8" x="12.74" y="33.58" width="1.27" height="1.16"/><rect class="cls-34" x="11.46" y="33.58" width="1.27" height="1.16"/><rect class="cls-14" x="10.19" y="33.58" width="1.27" height="1.16"/><rect class="cls-14" x="8.92" y="33.58" width="1.27" height="1.16"/><rect class="cls-35" x="7.64" y="33.58" width="1.27" height="1.16"/><rect class="cls-4" x="6.37" y="33.58" width="1.27" height="1.16"/><rect class="cls-36" x="5.09" y="33.58" width="1.27" height="1.16"/><rect x="3.82" y="33.58" width="1.27" height="1.16"/><rect class="cls-4" x="25.47" y="32.42" width="1.27" height="1.16"/><rect class="cls-37" x="24.2" y="32.42" width="1.27" height="1.16"/><rect class="cls-8" x="22.93" y="32.42" width="1.27" height="1.16"/><rect class="cls-28" x="21.65" y="32.42" width="1.27" height="1.16"/><rect x="20.38" y="32.42" width="1.27" height="1.16"/><rect class="cls-27" x="19.11" y="32.42" width="1.27" height="1.16"/><rect class="cls-26" x="17.83" y="32.42" width="1.27" height="1.16"/><rect class="cls-38" x="16.56" y="32.42" width="1.27" height="1.16"/><rect class="cls-8" x="15.28" y="32.42" width="1.27" height="1.16"/><rect class="cls-6" x="14.01" y="32.42" width="1.27" height="1.16"/><rect class="cls-8" x="12.74" y="32.42" width="1.27" height="1.16"/><rect class="cls-6" x="11.46" y="32.42" width="1.27" height="1.16"/><rect class="cls-39" x="10.19" y="32.42" width="1.27" height="1.16"/><rect class="cls-37" x="8.92" y="32.42" width="1.27" height="1.16"/><rect class="cls-3" x="7.64" y="32.42" width="1.27" height="1.16"/><rect x="6.37" y="32.42" width="1.27" height="1.16"/><rect x="5.09" y="32.42" width="1.27" height="1.16"/><rect x="3.82" y="32.42" width="1.27" height="1.16"/><rect class="cls-16" x="2.55" y="32.42" width="1.27" height="1.16"/><rect x="25.47" y="31.26" width="1.27" height="1.16"/><rect x="24.2" y="31.26" width="1.27" height="1.16"/><rect class="cls-8" x="22.93" y="31.26" width="1.27" height="1.16"/><rect class="cls-9" x="21.65" y="31.26" width="1.27" height="1.16"/><rect class="cls-40" x="20.38" y="31.26" width="1.27" height="1.16"/><rect class="cls-8" x="19.11" y="31.26" width="1.27" height="1.16"/><rect class="cls-41" x="17.83" y="31.26" width="1.27" height="1.16"/><rect class="cls-8" x="16.56" y="31.26" width="1.27" height="1.16"/><rect class="cls-8" x="15.28" y="31.26" width="1.27" height="1.16"/><rect class="cls-8" x="14.01" y="31.26" width="1.27" height="1.16"/><rect class="cls-8" x="12.74" y="31.26" width="1.27" height="1.16"/><rect class="cls-42" x="11.46" y="31.26" width="1.27" height="1.16"/><rect class="cls-26" x="10.19" y="31.26" width="1.27" height="1.16"/><rect class="cls-41" x="8.92" y="31.26" width="1.27" height="1.16"/><rect class="cls-2" x="7.64" y="31.26" width="1.27" height="1.16"/><rect x="6.37" y="31.26" width="1.27" height="1.16"/><rect x="5.09" y="31.26" width="1.27" height="1.16"/><rect x="3.82" y="31.26" width="1.27" height="1.16"/><rect x="2.55" y="31.26" width="1.27" height="1.16"/><rect class="cls-43" x="1.27" y="31.26" width="1.27" height="1.16"/><rect class="cls-8" x="25.47" y="30.11" width="1.27" height="1.16"/><rect class="cls-36" x="24.2" y="30.11" width="1.27" height="1.16"/><rect class="cls-44" x="22.93" y="30.11" width="1.27" height="1.16"/><rect x="21.65" y="30.11" width="1.27" height="1.16"/><rect x="20.38" y="30.11" width="1.27" height="1.16"/><rect class="cls-45" x="19.11" y="30.11" width="1.27" height="1.16"/><rect class="cls-8" x="17.83" y="30.11" width="1.27" height="1.16"/><rect class="cls-8" x="16.56" y="30.11" width="1.27" height="1.16"/><rect class="cls-8" x="15.28" y="30.11" width="1.27" height="1.16"/><rect class="cls-8" x="14.01" y="30.11" width="1.27" height="1.16"/><rect class="cls-8" x="12.74" y="30.11" width="1.27" height="1.16"/><rect class="cls-8" x="11.46" y="30.11" width="1.27" height="1.16"/><rect class="cls-8" x="10.19" y="30.11" width="1.27" height="1.16"/><rect class="cls-46" x="8.92" y="30.11" width="1.27" height="1.16"/><rect class="cls-2" x="7.64" y="30.11" width="1.27" height="1.16"/><rect x="6.37" y="30.11" width="1.27" height="1.16"/><rect x="5.09" y="30.11" width="1.27" height="1.16"/><rect class="cls-8" x="3.82" y="30.11" width="1.27" height="1.16"/><rect class="cls-16" x="2.55" y="30.11" width="1.27" height="1.16"/><rect class="cls-8" x="1.27" y="30.11" width="1.27" height="1.16"/><rect x="25.47" y="28.95" width="1.27" height="1.16"/><rect class="cls-9" x="24.2" y="28.95" width="1.27" height="1.16"/><rect class="cls-28" x="22.93" y="28.95" width="1.27" height="1.16"/><rect x="21.65" y="28.95" width="1.27" height="1.16"/><rect x="20.38" y="28.95" width="1.27" height="1.16"/><rect class="cls-28" x="19.11" y="28.95" width="1.27" height="1.16"/><rect class="cls-37" x="17.83" y="28.95" width="1.27" height="1.16"/><rect class="cls-24" x="16.56" y="28.95" width="1.27" height="1.16"/><rect class="cls-8" x="15.28" y="28.95" width="1.27" height="1.16"/><rect class="cls-47" x="14.01" y="28.95" width="1.27" height="1.16"/><rect class="cls-11" x="12.74" y="28.95" width="1.27" height="1.16"/><rect class="cls-8" x="11.46" y="28.95" width="1.27" height="1.16"/><rect class="cls-16" x="10.19" y="28.95" width="1.27" height="1.16"/><rect class="cls-6" x="8.92" y="28.95" width="1.27" height="1.16"/><rect class="cls-7" x="7.64" y="28.95" width="1.27" height="1.16"/><rect class="cls-16" x="6.37" y="28.95" width="1.27" height="1.16"/><rect x="5.09" y="28.95" width="1.27" height="1.16"/><rect class="cls-16" x="3.82" y="28.95" width="1.27" height="1.16"/><rect x="2.55" y="28.95" width="1.27" height="1.16"/><rect x="1.27" y="28.95" width="1.27" height="1.16"/><rect class="cls-1" x="25.47" y="27.79" width="1.27" height="1.16"/><rect x="24.2" y="27.79" width="1.27" height="1.16"/><rect class="cls-3" x="22.93" y="27.79" width="1.27" height="1.16"/><rect x="21.65" y="27.79" width="1.27" height="1.16"/><rect x="20.38" y="27.79" width="1.27" height="1.16"/><rect class="cls-2" x="19.11" y="27.79" width="1.27" height="1.16"/><rect class="cls-48" x="17.83" y="27.79" width="1.27" height="1.16"/><rect class="cls-49" x="16.56" y="27.79" width="1.27" height="1.16"/><rect class="cls-28" x="15.28" y="27.79" width="1.27" height="1.16"/><rect class="cls-8" x="14.01" y="27.79" width="1.27" height="1.16"/><rect class="cls-31" x="12.74" y="27.79" width="1.27" height="1.16"/><rect x="11.46" y="27.79" width="1.27" height="1.16"/><rect class="cls-45" x="10.19" y="27.79" width="1.27" height="1.16"/><rect x="8.92" y="27.79" width="1.27" height="1.16"/><rect x="7.64" y="27.79" width="1.27" height="1.16"/><rect x="6.37" y="27.79" width="1.27" height="1.16"/><rect x="5.09" y="27.79" width="1.27" height="1.16"/><rect class="cls-3" x="3.82" y="27.79" width="1.27" height="1.16"/><rect x="2.55" y="27.79" width="1.27" height="1.16"/><rect class="cls-50" x="1.27" y="27.79" width="1.27" height="1.16"/><rect class="cls-1" x="26.75" y="26.63" width="1.27" height="1.16"/><rect x="25.47" y="26.63" width="1.27" height="1.16"/><rect class="cls-7" x="24.2" y="26.63" width="1.27" height="1.16"/><rect x="22.93" y="26.63" width="1.27" height="1.16"/><rect class="cls-9" x="21.65" y="26.63" width="1.27" height="1.16"/><rect class="cls-28" x="20.38" y="26.63" width="1.27" height="1.16"/><rect class="cls-51" x="19.11" y="26.63" width="1.27" height="1.16"/><rect class="cls-8" x="17.83" y="26.63" width="1.27" height="1.16"/><rect class="cls-8" x="16.56" y="26.63" width="1.27" height="1.16"/><rect x="15.28" y="26.63" width="1.27" height="1.16"/><rect class="cls-36" x="14.01" y="26.63" width="1.27" height="1.16"/><rect x="12.74" y="26.63" width="1.27" height="1.16"/><rect x="11.46" y="26.63" width="1.27" height="1.16"/><rect class="cls-24" x="10.19" y="26.63" width="1.27" height="1.16"/><rect class="cls-8" x="8.92" y="26.63" width="1.27" height="1.16"/><rect x="7.64" y="26.63" width="1.27" height="1.16"/><rect class="cls-9" x="6.37" y="26.63" width="1.27" height="1.16"/><rect class="cls-9" x="5.09" y="26.63" width="1.27" height="1.16"/><rect x="3.82" y="26.63" width="1.27" height="1.16"/><rect class="cls-40" x="2.55" y="26.63" width="1.27" height="1.16"/><rect class="cls-52" x="1.27" y="26.63" width="1.27" height="1.16"/><rect class="cls-53" x="26.75" y="25.47" width="1.27" height="1.16"/><rect class="cls-43" x="25.47" y="25.47" width="1.27" height="1.16"/><rect class="cls-54" x="24.2" y="25.47" width="1.27" height="1.16"/><rect class="cls-10" x="22.93" y="25.47" width="1.27" height="1.16"/><rect class="cls-55" x="21.65" y="25.47" width="1.27" height="1.16"/><rect class="cls-29" x="20.38" y="25.47" width="1.27" height="1.16"/><rect class="cls-8" x="19.11" y="25.47" width="1.27" height="1.16"/><rect class="cls-8" x="17.83" y="25.47" width="1.27" height="1.16"/><rect class="cls-14" x="16.56" y="25.47" width="1.27" height="1.16"/><rect x="15.28" y="25.47" width="1.27" height="1.16"/><rect x="14.01" y="25.47" width="1.27" height="1.16"/><rect x="12.74" y="25.47" width="1.27" height="1.16"/><rect x="11.46" y="25.47" width="1.27" height="1.16"/><rect class="cls-8" x="10.19" y="25.47" width="1.27" height="1.16"/><rect class="cls-8" x="8.92" y="25.47" width="1.27" height="1.16"/><rect class="cls-8" x="7.64" y="25.47" width="1.27" height="1.16"/><rect class="cls-38" x="6.37" y="25.47" width="1.27" height="1.16"/><rect class="cls-55" x="5.09" y="25.47" width="1.27" height="1.16"/><rect class="cls-32" x="3.82" y="25.47" width="1.27" height="1.16"/><rect class="cls-3" x="2.55" y="25.47" width="1.27" height="1.16"/><rect x="1.27" y="25.47" width="1.27" height="1.16"/><rect class="cls-50" y="25.47" width="1.27" height="1.16"/><rect class="cls-1" x="28.02" y="24.32" width="1.27" height="1.16"/><rect x="26.75" y="24.32" width="1.27" height="1.16"/><rect class="cls-16" x="25.47" y="24.32" width="1.27" height="1.16"/><rect class="cls-8" x="24.2" y="24.32" width="1.27" height="1.16"/><rect class="cls-8" x="22.93" y="24.32" width="1.27" height="1.16"/><rect class="cls-26" x="21.65" y="24.32" width="1.27" height="1.16"/><rect class="cls-29" x="20.38" y="24.32" width="1.27" height="1.16"/><rect class="cls-31" x="19.11" y="24.32" width="1.27" height="1.16"/><rect class="cls-2" x="17.83" y="24.32" width="1.27" height="1.16"/><rect class="cls-20" x="16.56" y="24.32" width="1.27" height="1.16"/><rect x="15.28" y="24.32" width="1.27" height="1.16"/><rect x="14.01" y="24.32" width="1.27" height="1.16"/><rect x="12.74" y="24.32" width="1.27" height="1.16"/><rect class="cls-49" x="11.46" y="24.32" width="1.27" height="1.16"/><rect class="cls-8" x="10.19" y="24.32" width="1.27" height="1.16"/><rect x="8.92" y="24.32" width="1.27" height="1.16"/><rect class="cls-56" x="7.64" y="24.32" width="1.27" height="1.16"/><rect class="cls-26" x="6.37" y="24.32" width="1.27" height="1.16"/><rect class="cls-47" x="5.09" y="24.32" width="1.27" height="1.16"/><rect class="cls-8" x="3.82" y="24.32" width="1.27" height="1.16"/><rect class="cls-57" x="2.55" y="24.32" width="1.27" height="1.16"/><rect class="cls-2" x="1.27" y="24.32" width="1.27" height="1.16"/><rect class="cls-5" y="24.32" width="1.27" height="1.16"/><rect class="cls-13" x="28.02" y="23.16" width="1.27" height="1.16"/><rect x="26.75" y="23.16" width="1.27" height="1.16"/><rect class="cls-8" x="25.47" y="23.16" width="1.27" height="1.16"/><rect class="cls-37" x="24.2" y="23.16" width="1.27" height="1.16"/><rect x="22.93" y="23.16" width="1.27" height="1.16"/><rect x="21.65" y="23.16" width="1.27" height="1.16"/><rect x="20.38" y="23.16" width="1.27" height="1.16"/><rect class="cls-58" x="19.11" y="23.16" width="1.27" height="1.16"/><rect class="cls-59" x="17.83" y="23.16" width="1.27" height="1.16"/><rect class="cls-8" x="16.56" y="23.16" width="1.27" height="1.16"/><rect x="15.28" y="23.16" width="1.27" height="1.16"/><rect x="14.01" y="23.16" width="1.27" height="1.16"/><rect x="12.74" y="23.16" width="1.27" height="1.16"/><rect class="cls-15" x="11.46" y="23.16" width="1.27" height="1.16"/><rect class="cls-60" x="10.19" y="23.16" width="1.27" height="1.16"/><rect class="cls-43" x="8.92" y="23.16" width="1.27" height="1.16"/><rect x="7.64" y="23.16" width="1.27" height="1.16"/><rect x="6.37" y="23.16" width="1.27" height="1.16"/><rect x="5.09" y="23.16" width="1.27" height="1.16"/><rect x="3.82" y="23.16" width="1.27" height="1.16"/><rect class="cls-61" x="2.55" y="23.16" width="1.27" height="1.16"/><rect class="cls-9" x="1.27" y="23.16" width="1.27" height="1.16"/><rect class="cls-62" y="23.16" width="1.27" height="1.16"/><rect class="cls-45" x="28.02" y="22" width="1.27" height="1.16"/><rect x="26.75" y="22" width="1.27" height="1.16"/><rect class="cls-8" x="25.47" y="22" width="1.27" height="1.16"/><rect x="24.2" y="22" width="1.27" height="1.16"/><rect x="22.93" y="22" width="1.27" height="1.16"/><rect x="21.65" y="22" width="1.27" height="1.16"/><rect x="20.38" y="22" width="1.27" height="1.16"/><rect x="19.11" y="22" width="1.27" height="1.16"/><rect x="17.83" y="22" width="1.27" height="1.16"/><rect class="cls-7" x="16.56" y="22" width="1.27" height="1.16"/><rect class="cls-38" x="15.28" y="22" width="1.27" height="1.16"/><rect x="14.01" y="22" width="1.27" height="1.16"/><rect x="12.74" y="22" width="1.27" height="1.16"/><rect class="cls-24" x="11.46" y="22" width="1.27" height="1.16"/><rect x="10.19" y="22" width="1.27" height="1.16"/><rect x="8.92" y="22" width="1.27" height="1.16"/><rect x="7.64" y="22" width="1.27" height="1.16"/><rect x="6.37" y="22" width="1.27" height="1.16"/><rect x="5.09" y="22" width="1.27" height="1.16"/><rect x="3.82" y="22" width="1.27" height="1.16"/><rect class="cls-8" x="2.55" y="22" width="1.27" height="1.16"/><rect x="1.27" y="22" width="1.27" height="1.16"/><rect class="cls-4" y="22" width="1.27" height="1.16"/><rect x="28.02" y="20.84" width="1.27" height="1.16"/><rect x="26.75" y="20.84" width="1.27" height="1.16"/><rect x="25.47" y="20.84" width="1.27" height="1.16"/><rect x="24.2" y="20.84" width="1.27" height="1.16"/><rect x="22.93" y="20.84" width="1.27" height="1.16"/><rect x="21.65" y="20.84" width="1.27" height="1.16"/><rect x="20.38" y="20.84" width="1.27" height="1.16"/><rect x="19.11" y="20.84" width="1.27" height="1.16"/><rect x="17.83" y="20.84" width="1.27" height="1.16"/><rect x="16.56" y="20.84" width="1.27" height="1.16"/><rect class="cls-16" x="15.28" y="20.84" width="1.27" height="1.16"/><rect x="14.01" y="20.84" width="1.27" height="1.16"/><rect class="cls-47" x="12.74" y="20.84" width="1.27" height="1.16"/><rect class="cls-63" x="11.46" y="20.84" width="1.27" height="1.16"/><rect x="10.19" y="20.84" width="1.27" height="1.16"/><rect x="8.92" y="20.84" width="1.27" height="1.16"/><rect x="7.64" y="20.84" width="1.27" height="1.16"/><rect x="6.37" y="20.84" width="1.27" height="1.16"/><rect x="5.09" y="20.84" width="1.27" height="1.16"/><rect x="3.82" y="20.84" width="1.27" height="1.16"/><rect class="cls-8" x="2.55" y="20.84" width="1.27" height="1.16"/><rect x="1.27" y="20.84" width="1.27" height="1.16"/><rect class="cls-2" y="20.84" width="1.27" height="1.16"/><rect class="cls-8" x="28.02" y="19.68" width="1.27" height="1.16"/><rect x="26.75" y="19.68" width="1.27" height="1.16"/><rect x="25.47" y="19.68" width="1.27" height="1.16"/><rect x="24.2" y="19.68" width="1.27" height="1.16"/><rect x="22.93" y="19.68" width="1.27" height="1.16"/><rect x="21.65" y="19.68" width="1.27" height="1.16"/><rect x="20.38" y="19.68" width="1.27" height="1.16"/><rect x="19.11" y="19.68" width="1.27" height="1.16"/><rect x="17.83" y="19.68" width="1.27" height="1.16"/><rect x="16.56" y="19.68" width="1.27" height="1.16"/><rect class="cls-28" x="15.28" y="19.68" width="1.27" height="1.16"/><rect class="cls-27" x="14.01" y="19.68" width="1.27" height="1.16"/><rect class="cls-20" x="12.74" y="19.68" width="1.27" height="1.16"/><rect x="11.46" y="19.68" width="1.27" height="1.16"/><rect x="10.19" y="19.68" width="1.27" height="1.16"/><rect x="8.92" y="19.68" width="1.27" height="1.16"/><rect x="7.64" y="19.68" width="1.27" height="1.16"/><rect x="6.37" y="19.68" width="1.27" height="1.16"/><rect x="5.09" y="19.68" width="1.27" height="1.16"/><rect x="3.82" y="19.68" width="1.27" height="1.16"/><rect class="cls-24" x="2.55" y="19.68" width="1.27" height="1.16"/><rect class="cls-16" x="1.27" y="19.68" width="1.27" height="1.16"/><rect class="cls-8" y="19.68" width="1.27" height="1.16"/><rect class="cls-28" x="28.02" y="18.53" width="1.27" height="1.16"/><rect class="cls-37" x="26.75" y="18.53" width="1.27" height="1.16"/><rect class="cls-28" x="25.47" y="18.53" width="1.27" height="1.16"/><rect x="24.2" y="18.53" width="1.27" height="1.16"/><rect x="22.93" y="18.53" width="1.27" height="1.16"/><rect x="21.65" y="18.53" width="1.27" height="1.16"/><rect x="20.38" y="18.53" width="1.27" height="1.16"/><rect x="19.11" y="18.53" width="1.27" height="1.16"/><rect x="17.83" y="18.53" width="1.27" height="1.16"/><rect x="16.56" y="18.53" width="1.27" height="1.16"/><rect x="15.28" y="18.53" width="1.27" height="1.16"/><rect class="cls-11" x="14.01" y="18.53" width="1.27" height="1.16"/><rect class="cls-64" x="12.74" y="18.53" width="1.27" height="1.16"/><rect x="11.46" y="18.53" width="1.27" height="1.16"/><rect x="10.19" y="18.53" width="1.27" height="1.16"/><rect x="8.92" y="18.53" width="1.27" height="1.16"/><rect x="7.64" y="18.53" width="1.27" height="1.16"/><rect x="6.37" y="18.53" width="1.27" height="1.16"/><rect x="5.09" y="18.53" width="1.27" height="1.16"/><rect x="3.82" y="18.53" width="1.27" height="1.16"/><rect class="cls-24" x="2.55" y="18.53" width="1.27" height="1.16"/><rect class="cls-16" x="1.27" y="18.53" width="1.27" height="1.16"/><rect y="18.53" width="1.27" height="1.16"/><rect class="cls-8" x="28.02" y="17.37" width="1.27" height="1.16"/><rect class="cls-16" x="26.75" y="17.37" width="1.27" height="1.16"/><rect class="cls-9" x="25.47" y="17.37" width="1.27" height="1.16"/><rect x="24.2" y="17.37" width="1.27" height="1.16"/><rect x="22.93" y="17.37" width="1.27" height="1.16"/><rect x="21.65" y="17.37" width="1.27" height="1.16"/><rect x="20.38" y="17.37" width="1.27" height="1.16"/><rect x="19.11" y="17.37" width="1.27" height="1.16"/><rect x="17.83" y="17.37" width="1.27" height="1.16"/><rect x="16.56" y="17.37" width="1.27" height="1.16"/><rect x="15.28" y="17.37" width="1.27" height="1.16"/><rect class="cls-54" x="14.01" y="17.37" width="1.27" height="1.16"/><rect class="cls-8" x="12.74" y="17.37" width="1.27" height="1.16"/><rect x="11.46" y="17.37" width="1.27" height="1.16"/><rect x="10.19" y="17.37" width="1.27" height="1.16"/><rect x="8.92" y="17.37" width="1.27" height="1.16"/><rect x="7.64" y="17.37" width="1.27" height="1.16"/><rect x="6.37" y="17.37" width="1.27" height="1.16"/><rect x="5.09" y="17.37" width="1.27" height="1.16"/><rect x="3.82" y="17.37" width="1.27" height="1.16"/><rect class="cls-8" x="2.55" y="17.37" width="1.27" height="1.16"/><rect class="cls-16" x="1.27" y="17.37" width="1.27" height="1.16"/><rect y="17.37" width="1.27" height="1.16"/><rect class="cls-65" x="28.02" y="16.21" width="1.27" height="1.16"/><rect class="cls-16" x="26.75" y="16.21" width="1.27" height="1.16"/><rect class="cls-22" x="25.47" y="16.21" width="1.27" height="1.16"/><rect class="cls-8" x="24.2" y="16.21" width="1.27" height="1.16"/><rect x="22.93" y="16.21" width="1.27" height="1.16"/><rect x="21.65" y="16.21" width="1.27" height="1.16"/><rect x="20.38" y="16.21" width="1.27" height="1.16"/><rect x="19.11" y="16.21" width="1.27" height="1.16"/><rect x="17.83" y="16.21" width="1.27" height="1.16"/><rect x="16.56" y="16.21" width="1.27" height="1.16"/><rect class="cls-36" x="15.28" y="16.21" width="1.27" height="1.16"/><rect class="cls-66" x="14.01" y="16.21" width="1.27" height="1.16"/><rect class="cls-54" x="12.74" y="16.21" width="1.27" height="1.16"/><rect x="11.46" y="16.21" width="1.27" height="1.16"/><rect x="10.19" y="16.21" width="1.27" height="1.16"/><rect x="8.92" y="16.21" width="1.27" height="1.16"/><rect x="7.64" y="16.21" width="1.27" height="1.16"/><rect x="6.37" y="16.21" width="1.27" height="1.16"/><rect x="5.09" y="16.21" width="1.27" height="1.16"/><rect x="3.82" y="16.21" width="1.27" height="1.16"/><rect class="cls-8" x="2.55" y="16.21" width="1.27" height="1.16"/><rect class="cls-43" x="1.27" y="16.21" width="1.27" height="1.16"/><rect y="16.21" width="1.27" height="1.16"/><rect class="cls-67" x="28.02" y="15.05" width="1.27" height="1.16"/><rect class="cls-9" x="26.75" y="15.05" width="1.27" height="1.16"/><rect class="cls-8" x="25.47" y="15.05" width="1.27" height="1.16"/><rect class="cls-8" x="24.2" y="15.05" width="1.27" height="1.16"/><rect class="cls-8" x="22.93" y="15.05" width="1.27" height="1.16"/><rect x="21.65" y="15.05" width="1.27" height="1.16"/><rect x="20.38" y="15.05" width="1.27" height="1.16"/><rect x="19.11" y="15.05" width="1.27" height="1.16"/><rect x="17.83" y="15.05" width="1.27" height="1.16"/><rect class="cls-26" x="16.56" y="15.05" width="1.27" height="1.16"/><rect class="cls-8" x="15.28" y="15.05" width="1.27" height="1.16"/><rect class="cls-8" x="14.01" y="15.05" width="1.27" height="1.16"/><rect class="cls-8" x="12.74" y="15.05" width="1.27" height="1.16"/><rect class="cls-8" x="11.46" y="15.05" width="1.27" height="1.16"/><rect x="10.19" y="15.05" width="1.27" height="1.16"/><rect x="8.92" y="15.05" width="1.27" height="1.16"/><rect class="cls-68" x="7.64" y="15.05" width="1.27" height="1.16"/><rect x="6.37" y="15.05" width="1.27" height="1.16"/><rect class="cls-49" x="5.09" y="15.05" width="1.27" height="1.16"/><rect class="cls-8" x="3.82" y="15.05" width="1.27" height="1.16"/><rect class="cls-8" x="2.55" y="15.05" width="1.27" height="1.16"/><rect class="cls-32" x="1.27" y="15.05" width="1.27" height="1.16"/><rect y="15.05" width="1.27" height="1.16"/><rect class="cls-68" x="28.02" y="13.89" width="1.27" height="1.16"/><rect class="cls-36" x="26.75" y="13.89" width="1.27" height="1.16"/><rect class="cls-8" x="25.47" y="13.89" width="1.27" height="1.16"/><rect class="cls-20" x="24.2" y="13.89" width="1.27" height="1.16"/><rect class="cls-8" x="22.93" y="13.89" width="1.27" height="1.16"/><rect class="cls-8" x="21.65" y="13.89" width="1.27" height="1.16"/><rect class="cls-8" x="20.38" y="13.89" width="1.27" height="1.16"/><rect class="cls-8" x="19.11" y="13.89" width="1.27" height="1.16"/><rect class="cls-8" x="17.83" y="13.89" width="1.27" height="1.16"/><rect class="cls-8" x="16.56" y="13.89" width="1.27" height="1.16"/><rect class="cls-8" x="15.28" y="13.89" width="1.27" height="1.16"/><rect class="cls-8" x="14.01" y="13.89" width="1.27" height="1.16"/><rect class="cls-8" x="12.74" y="13.89" width="1.27" height="1.16"/><rect class="cls-10" x="11.46" y="13.89" width="1.27" height="1.16"/><rect class="cls-8" x="10.19" y="13.89" width="1.27" height="1.16"/><rect class="cls-8" x="8.92" y="13.89" width="1.27" height="1.16"/><rect class="cls-8" x="7.64" y="13.89" width="1.27" height="1.16"/><rect class="cls-8" x="6.37" y="13.89" width="1.27" height="1.16"/><rect class="cls-8" x="5.09" y="13.89" width="1.27" height="1.16"/><rect class="cls-8" x="3.82" y="13.89" width="1.27" height="1.16"/><rect class="cls-8" x="2.55" y="13.89" width="1.27" height="1.16"/><rect class="cls-8" x="1.27" y="13.89" width="1.27" height="1.16"/><rect y="13.89" width="1.27" height="1.16"/><rect class="cls-68" x="28.02" y="12.74" width="1.27" height="1.16"/><rect class="cls-8" x="26.75" y="12.74" width="1.27" height="1.16"/><rect class="cls-8" x="25.47" y="12.74" width="1.27" height="1.16"/><rect class="cls-8" x="24.2" y="12.74" width="1.27" height="1.16"/><rect class="cls-9" x="22.93" y="12.74" width="1.27" height="1.16"/><rect class="cls-8" x="21.65" y="12.74" width="1.27" height="1.16"/><rect class="cls-8" x="20.38" y="12.74" width="1.27" height="1.16"/><rect class="cls-8" x="19.11" y="12.74" width="1.27" height="1.16"/><rect class="cls-56" x="17.83" y="12.74" width="1.27" height="1.16"/><rect class="cls-8" x="16.56" y="12.74" width="1.27" height="1.16"/><rect class="cls-8" x="15.28" y="12.74" width="1.27" height="1.16"/><rect class="cls-8" x="14.01" y="12.74" width="1.27" height="1.16"/><rect class="cls-8" x="12.74" y="12.74" width="1.27" height="1.16"/><rect class="cls-8" x="11.46" y="12.74" width="1.27" height="1.16"/><rect class="cls-22" x="10.19" y="12.74" width="1.27" height="1.16"/><rect class="cls-8" x="8.92" y="12.74" width="1.27" height="1.16"/><rect class="cls-10" x="7.64" y="12.74" width="1.27" height="1.16"/><rect class="cls-8" x="6.37" y="12.74" width="1.27" height="1.16"/><rect class="cls-69" x="5.09" y="12.74" width="1.27" height="1.16"/><rect class="cls-21" x="3.82" y="12.74" width="1.27" height="1.16"/><rect class="cls-8" x="2.55" y="12.74" width="1.27" height="1.16"/><rect class="cls-8" x="1.27" y="12.74" width="1.27" height="1.16"/><rect class="cls-28" y="12.74" width="1.27" height="1.16"/><rect class="cls-68" x="28.02" y="11.58" width="1.27" height="1.16"/><rect class="cls-8" x="26.75" y="11.58" width="1.27" height="1.16"/><rect class="cls-8" x="25.47" y="11.58" width="1.27" height="1.16"/><rect class="cls-8" x="24.2" y="11.58" width="1.27" height="1.16"/><rect class="cls-8" x="22.93" y="11.58" width="1.27" height="1.16"/><rect class="cls-8" x="21.65" y="11.58" width="1.27" height="1.16"/><rect class="cls-8" x="20.38" y="11.58" width="1.27" height="1.16"/><rect class="cls-8" x="19.11" y="11.58" width="1.27" height="1.16"/><rect class="cls-8" x="17.83" y="11.58" width="1.27" height="1.16"/><rect class="cls-8" x="16.56" y="11.58" width="1.27" height="1.16"/><rect class="cls-8" x="15.28" y="11.58" width="1.27" height="1.16"/><rect class="cls-8" x="14.01" y="11.58" width="1.27" height="1.16"/><rect class="cls-8" x="12.74" y="11.58" width="1.27" height="1.16"/><rect class="cls-8" x="11.46" y="11.58" width="1.27" height="1.16"/><rect class="cls-8" x="10.19" y="11.58" width="1.27" height="1.16"/><rect class="cls-8" x="8.92" y="11.58" width="1.27" height="1.16"/><rect class="cls-15" x="7.64" y="11.58" width="1.27" height="1.16"/><rect class="cls-8" x="6.37" y="11.58" width="1.27" height="1.16"/><rect class="cls-8" x="5.09" y="11.58" width="1.27" height="1.16"/><rect class="cls-8" x="3.82" y="11.58" width="1.27" height="1.16"/><rect class="cls-8" x="2.55" y="11.58" width="1.27" height="1.16"/><rect class="cls-8" x="1.27" y="11.58" width="1.27" height="1.16"/><rect class="cls-7" y="11.58" width="1.27" height="1.16"/><rect class="cls-56" x="28.02" y="10.42" width="1.27" height="1.16"/><rect class="cls-51" x="26.75" y="10.42" width="1.27" height="1.16"/><rect class="cls-8" x="25.47" y="10.42" width="1.27" height="1.16"/><rect class="cls-8" x="24.2" y="10.42" width="1.27" height="1.16"/><rect class="cls-8" x="22.93" y="10.42" width="1.27" height="1.16"/><rect class="cls-8" x="21.65" y="10.42" width="1.27" height="1.16"/><rect class="cls-29" x="20.38" y="10.42" width="1.27" height="1.16"/><rect class="cls-8" x="19.11" y="10.42" width="1.27" height="1.16"/><rect class="cls-8" x="17.83" y="10.42" width="1.27" height="1.16"/><rect class="cls-8" x="16.56" y="10.42" width="1.27" height="1.16"/><rect class="cls-8" x="15.28" y="10.42" width="1.27" height="1.16"/><rect class="cls-8" x="14.01" y="10.42" width="1.27" height="1.16"/><rect class="cls-8" x="12.74" y="10.42" width="1.27" height="1.16"/><rect class="cls-8" x="11.46" y="10.42" width="1.27" height="1.16"/><rect class="cls-8" x="10.19" y="10.42" width="1.27" height="1.16"/><rect class="cls-8" x="8.92" y="10.42" width="1.27" height="1.16"/><rect class="cls-11" x="7.64" y="10.42" width="1.27" height="1.16"/><rect class="cls-8" x="6.37" y="10.42" width="1.27" height="1.16"/><rect class="cls-8" x="5.09" y="10.42" width="1.27" height="1.16"/><rect class="cls-8" x="3.82" y="10.42" width="1.27" height="1.16"/><rect class="cls-8" x="2.55" y="10.42" width="1.27" height="1.16"/><rect class="cls-8" x="1.27" y="10.42" width="1.27" height="1.16"/><rect y="10.42" width="1.27" height="1.16"/><rect class="cls-16" x="26.75" y="9.26" width="1.27" height="1.16"/><rect class="cls-8" x="25.47" y="9.26" width="1.27" height="1.16"/><rect class="cls-8" x="24.2" y="9.26" width="1.27" height="1.16"/><rect class="cls-8" x="22.93" y="9.26" width="1.27" height="1.16"/><rect class="cls-24" x="21.65" y="9.26" width="1.27" height="1.16"/><rect class="cls-38" x="20.38" y="9.26" width="1.27" height="1.16"/><rect class="cls-8" x="19.11" y="9.26" width="1.27" height="1.16"/><rect class="cls-8" x="17.83" y="9.26" width="1.27" height="1.16"/><rect class="cls-8" x="16.56" y="9.26" width="1.27" height="1.16"/><rect class="cls-8" x="15.28" y="9.26" width="1.27" height="1.16"/><rect class="cls-8" x="14.01" y="9.26" width="1.27" height="1.16"/><rect class="cls-8" x="12.74" y="9.26" width="1.27" height="1.16"/><rect class="cls-8" x="11.46" y="9.26" width="1.27" height="1.16"/><rect class="cls-8" x="10.19" y="9.26" width="1.27" height="1.16"/><rect class="cls-8" x="8.92" y="9.26" width="1.27" height="1.16"/><rect class="cls-8" x="7.64" y="9.26" width="1.27" height="1.16"/><rect class="cls-70" x="6.37" y="9.26" width="1.27" height="1.16"/><rect class="cls-8" x="5.09" y="9.26" width="1.27" height="1.16"/><rect class="cls-8" x="3.82" y="9.26" width="1.27" height="1.16"/><rect class="cls-8" x="2.55" y="9.26" width="1.27" height="1.16"/><rect class="cls-8" x="1.27" y="9.26" width="1.27" height="1.16"/><rect y="9.26" width="1.27" height="1.16"/><rect class="cls-4" x="26.75" y="8.11" width="1.27" height="1.16"/><rect class="cls-8" x="25.47" y="8.11" width="1.27" height="1.16"/><rect class="cls-8" x="24.2" y="8.11" width="1.27" height="1.16"/><rect class="cls-8" x="22.93" y="8.11" width="1.27" height="1.16"/><rect class="cls-22" x="21.65" y="8.11" width="1.27" height="1.16"/><rect class="cls-8" x="20.38" y="8.11" width="1.27" height="1.16"/><rect class="cls-8" x="19.11" y="8.11" width="1.27" height="1.16"/><rect class="cls-8" x="17.83" y="8.11" width="1.27" height="1.16"/><rect class="cls-8" x="16.56" y="8.11" width="1.27" height="1.16"/><rect class="cls-8" x="15.28" y="8.11" width="1.27" height="1.16"/><rect class="cls-8" x="14.01" y="8.11" width="1.27" height="1.16"/><rect class="cls-8" x="12.74" y="8.11" width="1.27" height="1.16"/><rect class="cls-8" x="11.46" y="8.11" width="1.27" height="1.16"/><rect class="cls-8" x="10.19" y="8.11" width="1.27" height="1.16"/><rect class="cls-8" x="8.92" y="8.11" width="1.27" height="1.16"/><rect class="cls-8" x="7.64" y="8.11" width="1.27" height="1.16"/><rect class="cls-8" x="6.37" y="8.11" width="1.27" height="1.16"/><rect class="cls-2" x="5.09" y="8.11" width="1.27" height="1.16"/><rect class="cls-8" x="3.82" y="8.11" width="1.27" height="1.16"/><rect class="cls-8" x="2.55" y="8.11" width="1.27" height="1.16"/><rect class="cls-71" x="1.27" y="8.11" width="1.27" height="1.16"/><rect class="cls-61" y="8.11" width="1.27" height="1.16"/><rect x="26.75" y="6.95" width="1.27" height="1.16"/><rect class="cls-10" x="25.47" y="6.95" width="1.27" height="1.16"/><rect class="cls-8" x="24.2" y="6.95" width="1.27" height="1.16"/><rect class="cls-71" x="22.93" y="6.95" width="1.27" height="1.16"/><rect class="cls-8" x="21.65" y="6.95" width="1.27" height="1.16"/><rect class="cls-8" x="20.38" y="6.95" width="1.27" height="1.16"/><rect class="cls-8" x="19.11" y="6.95" width="1.27" height="1.16"/><rect class="cls-8" x="17.83" y="6.95" width="1.27" height="1.16"/><rect class="cls-8" x="16.56" y="6.95" width="1.27" height="1.16"/><rect class="cls-8" x="15.28" y="6.95" width="1.27" height="1.16"/><rect class="cls-8" x="14.01" y="6.95" width="1.27" height="1.16"/><rect class="cls-8" x="12.74" y="6.95" width="1.27" height="1.16"/><rect class="cls-8" x="11.46" y="6.95" width="1.27" height="1.16"/><rect class="cls-8" x="10.19" y="6.95" width="1.27" height="1.16"/><rect class="cls-8" x="8.92" y="6.95" width="1.27" height="1.16"/><rect class="cls-8" x="7.64" y="6.95" width="1.27" height="1.16"/><rect class="cls-8" x="6.37" y="6.95" width="1.27" height="1.16"/><rect class="cls-70" x="5.09" y="6.95" width="1.27" height="1.16"/><rect class="cls-8" x="3.82" y="6.95" width="1.27" height="1.16"/><rect class="cls-8" x="2.55" y="6.95" width="1.27" height="1.16"/><rect class="cls-6" x="1.27" y="6.95" width="1.27" height="1.16"/><rect x="25.47" y="5.79" width="1.27" height="1.16"/><rect class="cls-8" x="24.2" y="5.79" width="1.27" height="1.16"/><rect class="cls-27" x="22.93" y="5.79" width="1.27" height="1.16"/><rect class="cls-8" x="21.65" y="5.79" width="1.27" height="1.16"/><rect class="cls-8" x="20.38" y="5.79" width="1.27" height="1.16"/><rect class="cls-8" x="19.11" y="5.79" width="1.27" height="1.16"/><rect class="cls-8" x="17.83" y="5.79" width="1.27" height="1.16"/><rect class="cls-8" x="16.56" y="5.79" width="1.27" height="1.16"/><rect class="cls-8" x="15.28" y="5.79" width="1.27" height="1.16"/><rect class="cls-8" x="14.01" y="5.79" width="1.27" height="1.16"/><rect class="cls-8" x="12.74" y="5.79" width="1.27" height="1.16"/><rect class="cls-8" x="11.46" y="5.79" width="1.27" height="1.16"/><rect class="cls-8" x="10.19" y="5.79" width="1.27" height="1.16"/><rect class="cls-8" x="8.92" y="5.79" width="1.27" height="1.16"/><rect class="cls-8" x="7.64" y="5.79" width="1.27" height="1.16"/><rect class="cls-8" x="6.37" y="5.79" width="1.27" height="1.16"/><rect class="cls-8" x="5.09" y="5.79" width="1.27" height="1.16"/><rect class="cls-16" x="3.82" y="5.79" width="1.27" height="1.16"/><rect class="cls-22" x="2.55" y="5.79" width="1.27" height="1.16"/><rect class="cls-47" x="1.27" y="5.79" width="1.27" height="1.16"/><rect x="24.2" y="4.63" width="1.27" height="1.16"/><rect class="cls-54" x="22.93" y="4.63" width="1.27" height="1.16"/><rect class="cls-8" x="21.65" y="4.63" width="1.27" height="1.16"/><rect class="cls-8" x="20.38" y="4.63" width="1.27" height="1.16"/><rect class="cls-8" x="19.11" y="4.63" width="1.27" height="1.16"/><rect class="cls-8" x="17.83" y="4.63" width="1.27" height="1.16"/><rect class="cls-8" x="16.56" y="4.63" width="1.27" height="1.16"/><rect class="cls-8" x="15.28" y="4.63" width="1.27" height="1.16"/><rect class="cls-8" x="14.01" y="4.63" width="1.27" height="1.16"/><rect class="cls-8" x="12.74" y="4.63" width="1.27" height="1.16"/><rect class="cls-8" x="11.46" y="4.63" width="1.27" height="1.16"/><rect class="cls-8" x="10.19" y="4.63" width="1.27" height="1.16"/><rect class="cls-8" x="8.92" y="4.63" width="1.27" height="1.16"/><rect class="cls-8" x="7.64" y="4.63" width="1.27" height="1.16"/><rect class="cls-8" x="6.37" y="4.63" width="1.27" height="1.16"/><rect class="cls-8" x="5.09" y="4.63" width="1.27" height="1.16"/><rect class="cls-16" x="3.82" y="4.63" width="1.27" height="1.16"/><rect x="2.55" y="4.63" width="1.27" height="1.16"/><rect class="cls-6" x="22.93" y="3.47" width="1.27" height="1.16"/><rect class="cls-22" x="21.65" y="3.47" width="1.27" height="1.16"/><rect class="cls-8" x="20.38" y="3.47" width="1.27" height="1.16"/><rect class="cls-8" x="19.11" y="3.47" width="1.27" height="1.16"/><rect class="cls-8" x="17.83" y="3.47" width="1.27" height="1.16"/><rect class="cls-8" x="16.56" y="3.47" width="1.27" height="1.16"/><rect class="cls-8" x="15.28" y="3.47" width="1.27" height="1.16"/><rect class="cls-8" x="14.01" y="3.47" width="1.27" height="1.16"/><rect class="cls-8" x="12.74" y="3.47" width="1.27" height="1.16"/><rect class="cls-8" x="11.46" y="3.47" width="1.27" height="1.16"/><rect class="cls-8" x="10.19" y="3.47" width="1.27" height="1.16"/><rect class="cls-8" x="8.92" y="3.47" width="1.27" height="1.16"/><rect class="cls-8" x="7.64" y="3.47" width="1.27" height="1.16"/><rect class="cls-8" x="6.37" y="3.47" width="1.27" height="1.16"/><rect class="cls-16" x="5.09" y="3.47" width="1.27" height="1.16"/><rect x="3.82" y="3.47" width="1.27" height="1.16"/><rect x="21.65" y="2.32" width="1.27" height="1.16"/><rect class="cls-16" x="20.38" y="2.32" width="1.27" height="1.16"/><rect class="cls-38" x="19.11" y="2.32" width="1.27" height="1.16"/><rect class="cls-8" x="17.83" y="2.32" width="1.27" height="1.16"/><rect class="cls-8" x="16.56" y="2.32" width="1.27" height="1.16"/><rect class="cls-8" x="15.28" y="2.32" width="1.27" height="1.16"/><rect class="cls-8" x="14.01" y="2.32" width="1.27" height="1.16"/><rect class="cls-8" x="12.74" y="2.32" width="1.27" height="1.16"/><rect class="cls-8" x="11.46" y="2.32" width="1.27" height="1.16"/><rect class="cls-8" x="10.19" y="2.32" width="1.27" height="1.16"/><rect class="cls-8" x="8.92" y="2.32" width="1.27" height="1.16"/><rect class="cls-16" x="7.64" y="2.32" width="1.27" height="1.16"/><rect class="cls-28" x="6.37" y="2.32" width="1.27" height="1.16"/><rect x="5.09" y="2.32" width="1.27" height="1.16"/><rect class="cls-66" x="20.38" y="1.16" width="1.27" height="1.16"/><rect x="19.11" y="1.16" width="1.27" height="1.16"/><rect class="cls-2" x="17.83" y="1.16" width="1.27" height="1.16"/><rect class="cls-16" x="16.56" y="1.16" width="1.27" height="1.16"/><rect class="cls-54" x="15.28" y="1.16" width="1.27" height="1.16"/><rect class="cls-24" x="14.01" y="1.16" width="1.27" height="1.16"/><rect class="cls-38" x="12.74" y="1.16" width="1.27" height="1.16"/><rect class="cls-16" x="11.46" y="1.16" width="1.27" height="1.16"/><rect class="cls-16" x="10.19" y="1.16" width="1.27" height="1.16"/><rect class="cls-3" x="8.92" y="1.16" width="1.27" height="1.16"/><rect x="7.64" y="1.16" width="1.27" height="1.16"/><rect x="16.56" width="1.27" height="1.16"/><rect x="15.28" width="1.27" height="1.16"/><rect x="14.01" width="1.27" height="1.16"/><rect x="12.74" width="1.27" height="1.16"/><rect x="11.46" width="1.27" height="1.16"/><rect class="cls-31" x="10.19" width="1.27" height="1.16"/></g></g></svg>